<svg xmlns="http://www.w3.org/2000/svg" xmlns:xlink="http://www.w3.org/1999/xlink" width="1111" height="694" version="1.1">
<style type="text/css">
.l0{
  fill: #000000;
  stroke: #000000;
  stroke-linecap:round;
  stroke-linejoin:round;
  stroke-width: 0.767328;
}
.l1{
  fill: #00ddff;
  stroke: #00ddff;
  stroke-linecap:round;
  stroke-linejoin:round;
  stroke-width: 0.767328;
}
.l2{
  fill: #4f4f4f; fill-opacity: 0.2;
  stroke: #4f4f4f;
  stroke-linecap:round;
  stroke-linejoin:round;
  stroke-width: 0.767328;
}
.l3{
  fill: #cccccc; fill-opacity: 0.5;
  stroke: #cccccc;
  stroke-linecap:round;
  stroke-linejoin:round;
  stroke-width: 0.767328;
}
.l4{
  fill: #88dd00;
  stroke: #88dd00;
  stroke-linecap:round;
  stroke-linejoin:round;
  stroke-width: 0.767328;
}
.l5{
  fill: #bb2200;
  stroke: #bb2200;
  stroke-linecap:round;
  stroke-linejoin:round;
  stroke-width: 0.767328;
}
.l6{
  fill: #00aaff; fill-opacity: 0.5;
  stroke: #00aaff;
  stroke-linecap:round;
  stroke-linejoin:round;
  stroke-width: 0.767328;
}
.l7{
  fill: #ff0000; fill-opacity: 0.5;
  stroke: #ff0000;
  stroke-linecap:round;
  stroke-linejoin:round;
  stroke-width: 0.767328;
}
.l8{
  fill: #ffff00; fill-opacity: 0.5;
  stroke: #ffff00;
  stroke-linecap:round;
  stroke-linejoin:round;
  stroke-width: 0.767328;
}
.l9{
  fill: #ffffff; fill-opacity: 0.5;
  stroke: #ffffff;
  stroke-linecap:round;
  stroke-linejoin:round;
  stroke-width: 0.767328;
}
.l10{
  fill: #ff00ff;
  stroke: #ff00ff;
  stroke-linecap:round;
  stroke-linejoin:round;
  stroke-width: 0.767328;
}
.l11{
  fill: #00ff00; fill-opacity: 0.5;
  stroke: #00ff00;
  stroke-linecap:round;
  stroke-linejoin:round;
  stroke-width: 0.767328;
}
.l12{
  fill: #0044ff; fill-opacity: 0.5;
  stroke: #0044ff;
  stroke-linecap:round;
  stroke-linejoin:round;
  stroke-width: 0.767328;
}
.l13{
  fill: #aaaa00; fill-opacity: 0.5;
  stroke: #aaaa00;
  stroke-linecap:round;
  stroke-linejoin:round;
  stroke-width: 0.767328;
}
.l14{
  fill: #aaccaa; fill-opacity: 0.2;
  stroke: #aaccaa;
  stroke-linecap:round;
  stroke-linejoin:round;
  stroke-width: 0.767328;
}
.l15{
  fill: #ff7777; fill-opacity: 0.5;
  stroke: #ff7777;
  stroke-linecap:round;
  stroke-linejoin:round;
  stroke-width: 0.767328;
}
.l16{
  fill: #bfff81; fill-opacity: 0.5;
  stroke: #bfff81;
  stroke-linecap:round;
  stroke-linejoin:round;
  stroke-width: 0.767328;
}
.l17{
  fill: #00ffcc; fill-opacity: 0.2;
  stroke: #00ffcc;
  stroke-linecap:round;
  stroke-linejoin:round;
  stroke-width: 0.767328;
}
.l18{
  fill: #ce0097; fill-opacity: 0.5;
  stroke: #ce0097;
  stroke-linecap:round;
  stroke-linejoin:round;
  stroke-width: 0.767328;
}
.l19{
  fill: #d2d46b; fill-opacity: 0.2;
  stroke: #d2d46b;
  stroke-linecap:round;
  stroke-linejoin:round;
  stroke-width: 0.767328;
}
.l20{
  fill: #ef6158; fill-opacity: 0.2;
  stroke: #ef6158;
  stroke-linecap:round;
  stroke-linejoin:round;
  stroke-width: 0.767328;
}
.l21{
  fill: #fdb200; fill-opacity: 0.2;
  stroke: #fdb200;
  stroke-linecap:round;
  stroke-linejoin:round;
  stroke-width: 0.767328;
}
text {font-family: Sans-Serif;}
</style>
<rect class="l0" x="0" y="0" width="1111" height="694"/>
<path class="l4" d="M43.6636 390.868L46.5055 390.868"/>
<path class="l4" d="M45.0846 389.447L45.0846 392.289"/>
<path class="l4" d="M42.2426 386.606L42.2426 420.709"/>
<circle class="l4" cx="42.2426" cy="403.657" r="8.52587" style="fill:none;" />
<path class="l4" d="M26.6118 510.231L29.4538 510.231"/>
<path class="l4" d="M28.0328 508.81L28.0328 511.652"/>
<path class="l4" d="M25.1909 505.968L25.1909 540.071"/>
<circle class="l4" cx="25.1909" cy="523.019" r="8.52587" style="fill:none;" />
<path class="l4" d="M549.532 385.185L552.374 385.185"/>
<path class="l4" d="M550.953 383.764L550.953 386.606"/>
<path class="l4" d="M548.111 380.922L548.111 415.025"/>
<circle class="l4" cx="548.111" cy="397.973" r="8.52587" style="fill:none;" />
<path class="l4" d="M464.273 504.547L467.115 504.547"/>
<path class="l4" d="M465.694 503.126L465.694 505.968"/>
<path class="l4" d="M462.852 500.284L462.852 534.387"/>
<circle class="l4" cx="462.852" cy="517.336" r="8.52587" style="fill:none;" />
<path class="l4" d="M565.163 523.019L565.163 531.545"/>
<path class="l4" d="M565.163 548.597L565.163 557.123"/>
<path class="l4" d="M566.584 527.282L569.426 527.282"/>
<path class="l4" d="M568.005 525.861L568.005 528.703"/>
<path class="l4" d="M565.163 535.808L565.163 541.492L566.584 541.492L565.163 545.755L563.742 541.492L565.163 541.492L565.163 535.808"/>
<circle class="l4" cx="565.163" cy="540.071" r="8.52587" style="fill:none;" />
<path class="l4" d="M677.42 555.702L677.42 581.28"/>
<path class="l4" d="M661.789 568.491L674.578 568.491"/>
<path class="l4" d="M684.525 551.439L684.525 558.544"/>
<path class="l4" d="M684.525 578.438L684.525 585.542"/>
<path class="l4" d="M674.578 559.965L674.578 577.017"/>
<path class="l4" d="M677.42 558.544L684.525 558.544"/>
<path class="l4" d="M677.42 578.438L681.683 578.438"/>
<path class="l4" d="M681.683 577.017L684.525 578.438L681.683 579.859L681.683 577.017"/>
<path class="l4" d="M955.932 311.294L955.932 336.871"/>
<path class="l4" d="M963.037 307.031L963.037 314.136"/>
<path class="l4" d="M963.037 334.029L963.037 341.134"/>
<path class="l4" d="M953.09 315.557L953.09 332.608"/>
<path class="l4" d="M955.932 334.029L963.037 334.029"/>
<path class="l4" d="M958.774 314.136L963.037 314.136"/>
<path class="l4" d="M940.301 324.082L947.406 324.082"/>
<path class="l4" d="M958.774 312.715L955.932 314.136L958.774 315.557L958.774 312.715"/>
<circle class="l4" cx="950.248" cy="324.082" r="2.84196" style="fill:none;" />
<path class="l4" d="M825.202 470.443L825.202 496.021"/>
<path class="l4" d="M809.571 483.232L822.36 483.232"/>
<path class="l4" d="M832.307 466.18L832.307 473.285"/>
<path class="l4" d="M832.307 493.179L832.307 500.284"/>
<path class="l4" d="M822.36 474.706L822.36 491.758"/>
<path class="l4" d="M825.202 473.285L832.307 473.285"/>
<path class="l4" d="M825.202 493.179L829.465 493.179"/>
<path class="l4" d="M829.465 491.758L832.307 493.179L829.465 494.6L829.465 491.758"/>
<path class="l4" d="M734.259 652.328L734.259 677.906"/>
<path class="l4" d="M741.364 648.066L741.364 655.17"/>
<path class="l4" d="M741.364 675.064L741.364 682.169"/>
<path class="l4" d="M731.417 656.591L731.417 673.643"/>
<path class="l4" d="M734.259 675.064L741.364 675.064"/>
<path class="l4" d="M737.101 655.17L741.364 655.17"/>
<path class="l4" d="M718.628 665.117L725.733 665.117"/>
<path class="l4" d="M737.101 653.749L734.259 655.17L737.101 656.591L737.101 653.749"/>
<circle class="l4" cx="728.575" cy="665.117" r="2.84196" style="fill:none;" />
<path class="l4" d="M616.318 636.698L616.318 645.224"/>
<path class="l4" d="M616.318 662.275L616.318 670.801"/>
<path class="l4" d="M617.739 640.961L620.581 640.961"/>
<path class="l4" d="M619.16 639.54L619.16 642.382"/>
<path class="l4" d="M616.318 649.487L616.318 655.17L617.739 655.17L616.318 659.433L614.897 655.17L616.318 655.17L616.318 649.487"/>
<circle class="l4" cx="616.318" cy="653.749" r="8.52587" style="fill:none;" />
<path class="l4" d="M768.363 550.018L768.363 575.596"/>
<path class="l4" d="M752.732 562.807L765.521 562.807"/>
<path class="l4" d="M775.467 545.755L775.467 552.86"/>
<path class="l4" d="M775.467 572.754L775.467 579.859"/>
<path class="l4" d="M765.521 554.281L765.521 571.333"/>
<path class="l4" d="M768.363 552.86L775.467 552.86"/>
<path class="l4" d="M768.363 572.754L772.625 572.754"/>
<path class="l4" d="M772.625 571.333L775.467 572.754L772.625 574.175L772.625 571.333"/>
<path class="l4" d="M626.265 464.759L626.265 490.337"/>
<path class="l4" d="M610.634 477.548L623.423 477.548"/>
<path class="l4" d="M633.37 460.496L633.37 467.601"/>
<path class="l4" d="M633.37 487.495L633.37 494.6"/>
<path class="l4" d="M623.423 469.022L623.423 486.074"/>
<path class="l4" d="M626.265 467.601L633.37 467.601"/>
<path class="l4" d="M626.265 487.495L630.528 487.495"/>
<path class="l4" d="M630.528 486.074L633.37 487.495L630.528 488.916L630.528 486.074"/>
<path class="l4" d="M668.894 368.133L668.894 393.71"/>
<path class="l4" d="M671.736 380.922L684.525 380.922"/>
<path class="l4" d="M661.789 363.87L661.789 370.975"/>
<path class="l4" d="M661.789 390.868L661.789 397.973"/>
<path class="l4" d="M671.736 372.396L671.736 389.447"/>
<path class="l4" d="M661.789 370.975L668.894 370.975"/>
<path class="l4" d="M664.631 390.868L668.894 390.868"/>
<path class="l4" d="M664.631 389.447L661.789 390.868L664.631 392.289L664.631 389.447"/>
<path class="l4" d="M779.73 373.817L779.73 399.394"/>
<path class="l4" d="M786.835 369.554L786.835 376.659"/>
<path class="l4" d="M786.835 396.552L786.835 403.657"/>
<path class="l4" d="M776.888 378.08L776.888 395.131"/>
<path class="l4" d="M779.73 396.552L786.835 396.552"/>
<path class="l4" d="M782.572 376.659L786.835 376.659"/>
<path class="l4" d="M764.1 386.606L771.205 386.606"/>
<path class="l4" d="M782.572 375.238L779.73 376.659L782.572 378.08L782.572 375.238"/>
<circle class="l4" cx="774.046" cy="386.606" r="2.84196" style="fill:none;" />
<path class="l4" d="M944.564 424.972L944.564 450.55"/>
<path class="l4" d="M951.669 420.709L951.669 427.814"/>
<path class="l4" d="M951.669 447.708L951.669 454.812"/>
<path class="l4" d="M941.722 429.235L941.722 446.287"/>
<path class="l4" d="M944.564 447.708L951.669 447.708"/>
<path class="l4" d="M947.406 427.814L951.669 427.814"/>
<path class="l4" d="M928.933 437.761L936.038 437.761"/>
<path class="l4" d="M947.406 426.393L944.564 427.814L947.406 429.235L947.406 426.393"/>
<circle class="l4" cx="938.88" cy="437.761" r="2.84196" style="fill:none;" />
<path class="l4" d="M739.943 481.811L739.943 507.389"/>
<path class="l4" d="M747.048 477.548L747.048 484.653"/>
<path class="l4" d="M747.048 504.547L747.048 511.652"/>
<path class="l4" d="M737.101 486.074L737.101 503.126"/>
<path class="l4" d="M739.943 504.547L747.048 504.547"/>
<path class="l4" d="M742.785 484.653L747.048 484.653"/>
<path class="l4" d="M724.312 494.6L731.417 494.6"/>
<path class="l4" d="M742.785 483.232L739.943 484.653L742.785 486.074L742.785 483.232"/>
<circle class="l4" cx="734.259" cy="494.6" r="2.84196" style="fill:none;" />
<path class="l4" d="M904.776 527.282L904.776 552.86"/>
<path class="l4" d="M911.881 523.019L911.881 530.124"/>
<path class="l4" d="M911.881 550.018L911.881 557.123"/>
<path class="l4" d="M901.935 531.545L901.935 548.597"/>
<path class="l4" d="M904.776 550.018L911.881 550.018"/>
<path class="l4" d="M907.618 530.124L911.881 530.124"/>
<path class="l4" d="M889.146 540.071L896.251 540.071"/>
<path class="l4" d="M907.618 528.703L904.776 530.124L907.618 531.545L907.618 528.703"/>
<circle class="l4" cx="899.093" cy="540.071" r="2.84196" style="fill:none;" />
<path class="l4" d="M856.463 356.765L856.463 382.343"/>
<path class="l4" d="M849.358 352.502L849.358 359.607"/>
<path class="l4" d="M849.358 379.501L849.358 386.606"/>
<path class="l4" d="M859.305 361.028L859.305 378.08"/>
<path class="l4" d="M849.358 379.501L856.463 379.501"/>
<path class="l4" d="M849.358 359.607L853.621 359.607"/>
<path class="l4" d="M864.989 369.554L872.094 369.554"/>
<path class="l4" d="M853.621 358.186L856.463 359.607L853.621 361.028L853.621 358.186"/>
<circle class="l4" cx="862.147" cy="369.554" r="2.84196" style="fill:none;" />
<path class="l4" d="M870.673 606.857L870.673 632.435"/>
<path class="l4" d="M855.042 619.646L867.831 619.646"/>
<path class="l4" d="M877.778 602.594L877.778 609.699"/>
<path class="l4" d="M877.778 629.593L877.778 636.698"/>
<path class="l4" d="M867.831 611.12L867.831 628.172"/>
<path class="l4" d="M870.673 609.699L877.778 609.699"/>
<path class="l4" d="M870.673 629.593L874.936 629.593"/>
<path class="l4" d="M874.936 628.172L877.778 629.593L874.936 631.014L874.936 628.172"/>
<path class="l4" d="M1048.3 352.502L1048.3 358.186"/>
<path class="l4" d="M1048.3 352.502L1052.56 351.081"/>
<path class="l4" d="M1044.03 348.239L1052.56 351.081"/>
<path class="l4" d="M1044.03 348.239L1052.56 345.397"/>
<path class="l4" d="M1044.03 342.555L1052.56 345.397"/>
<path class="l4" d="M1044.03 342.555L1052.56 339.713"/>
<path class="l4" d="M1044.03 336.871L1052.56 339.713"/>
<path class="l4" d="M1044.03 336.871L1052.56 334.029"/>
<path class="l4" d="M1044.03 331.187L1052.56 334.029"/>
<path class="l4" d="M1044.03 331.187L1048.3 329.766"/>
<path class="l4" d="M1048.3 324.082L1048.3 329.766"/>
<path class="l4" d="M1049.72 328.345L1052.56 328.345"/>
<path class="l4" d="M1051.14 326.924L1051.14 329.766"/>
<path class="l4" d="M1071.03 463.338L1071.03 477.548"/>
<path class="l4" d="M1071.03 443.445L1071.03 457.654"/>
<path class="l4" d="M1065.35 457.654L1076.71 457.654"/>
<path class="l4" d="M1065.35 463.338L1076.71 463.338"/>
<path class="l4" d="M1072.45 447.708L1075.29 447.708"/>
<path class="l4" d="M1073.87 446.287L1073.87 449.129"/>
<path class="l4" d="M1042.61 554.281L1042.61 568.491"/>
<path class="l4" d="M1042.61 534.387L1042.61 548.597"/>
<path class="l4" d="M1036.93 548.597L1048.3 548.597"/>
<path class="l4" d="M1036.93 554.281L1048.3 554.281"/>
<path class="l4" d="M1044.03 538.65L1046.87 538.65"/>
<path class="l4" d="M1045.45 537.229L1045.45 540.071"/>
<path class="l4" d="M42.2426 375.238L42.2426 386.606"/>
<path class="l4" d="M36.5587 375.238L47.9265 375.238"/>
<path class="l4" d="M565.163 511.652L565.163 523.019"/>
<path class="l4" d="M559.479 511.652L570.847 511.652"/>
<path class="l4" d="M951.669 329.766L951.669 341.134"/>
<path class="l4" d="M945.985 329.766L957.353 329.766"/>
<path class="l4" d="M963.037 312.715L963.037 324.082"/>
<path class="l4" d="M957.353 312.715L968.721 312.715"/>
<path class="l4" d="M729.996 670.801L729.996 682.169"/>
<path class="l4" d="M724.312 670.801L735.68 670.801"/>
<path class="l4" d="M741.364 653.749L741.364 665.117"/>
<path class="l4" d="M735.68 653.749L747.048 653.749"/>
<path class="l4" d="M775.467 392.289L775.467 403.657"/>
<path class="l4" d="M769.784 392.289L781.151 392.289"/>
<path class="l4" d="M786.835 375.238L786.835 386.606"/>
<path class="l4" d="M781.151 375.238L792.519 375.238"/>
<path class="l4" d="M940.301 443.445L940.301 454.812"/>
<path class="l4" d="M934.617 443.445L945.985 443.445"/>
<path class="l4" d="M951.669 426.393L951.669 437.761"/>
<path class="l4" d="M945.985 426.393L957.353 426.393"/>
<path class="l4" d="M747.048 483.232L747.048 494.6"/>
<path class="l4" d="M741.364 483.232L752.732 483.232"/>
<path class="l4" d="M911.881 528.703L911.881 540.071"/>
<path class="l4" d="M906.197 528.703L917.565 528.703"/>
<path class="l4" d="M860.726 375.238L860.726 386.606"/>
<path class="l4" d="M855.042 375.238L866.41 375.238"/>
<path class="l4" d="M849.358 358.186L849.358 369.554"/>
<path class="l4" d="M843.674 358.186L855.042 358.186"/>
<path class="l4" d="M42.2426 420.709L42.2426 427.814"/>
<path class="l4" d="M39.4007 427.814L45.0846 427.814"/>
<path class="l4" d="M42.2426 430.656L45.0846 427.814"/>
<path class="l4" d="M39.4007 427.814L42.2426 430.656"/>
<path class="l4" d="M25.1909 540.071L25.1909 547.176"/>
<path class="l4" d="M22.3489 547.176L28.0328 547.176"/>
<path class="l4" d="M25.1909 550.018L28.0328 547.176"/>
<path class="l4" d="M22.3489 547.176L25.1909 550.018"/>
<path class="l4" d="M548.111 415.025L548.111 422.13"/>
<path class="l4" d="M545.269 422.13L550.953 422.13"/>
<path class="l4" d="M548.111 424.972L550.953 422.13"/>
<path class="l4" d="M545.269 422.13L548.111 424.972"/>
<path class="l4" d="M462.852 534.387L462.852 541.492"/>
<path class="l4" d="M460.01 541.492L465.694 541.492"/>
<path class="l4" d="M462.852 544.334L465.694 541.492"/>
<path class="l4" d="M460.01 541.492L462.852 544.334"/>
<path class="l4" d="M1042.61 568.491L1042.61 575.596"/>
<path class="l4" d="M1039.77 575.596L1045.45 575.596"/>
<path class="l4" d="M1042.61 578.438L1045.45 575.596"/>
<path class="l4" d="M1039.77 575.596L1042.61 578.438"/>
<path class="l4" d="M25.1909 505.968L25.1909 513.073"/>
<path class="l4" d="M22.3489 513.073L28.0328 513.073"/>
<path class="l4" d="M25.1909 515.915L28.0328 513.073"/>
<path class="l4" d="M22.3489 513.073L25.1909 515.915"/>
<path class="l4" d="M673.157 585.542L673.157 592.647"/>
<path class="l4" d="M670.315 592.647L675.999 592.647"/>
<path class="l4" d="M673.157 595.489L675.999 592.647"/>
<path class="l4" d="M670.315 592.647L673.157 595.489"/>
<path class="l4" d="M684.525 568.491L684.525 575.596"/>
<path class="l4" d="M681.683 575.596L687.367 575.596"/>
<path class="l4" d="M684.525 578.438L687.367 575.596"/>
<path class="l4" d="M681.683 575.596L684.525 578.438"/>
<path class="l4" d="M820.939 500.284L820.939 507.389"/>
<path class="l4" d="M818.097 507.389L823.781 507.389"/>
<path class="l4" d="M820.939 510.231L823.781 507.389"/>
<path class="l4" d="M818.097 507.389L820.939 510.231"/>
<path class="l4" d="M832.307 483.232L832.307 490.337"/>
<path class="l4" d="M829.465 490.337L835.149 490.337"/>
<path class="l4" d="M832.307 493.179L835.149 490.337"/>
<path class="l4" d="M829.465 490.337L832.307 493.179"/>
<path class="l4" d="M616.318 670.801L616.318 677.906"/>
<path class="l4" d="M613.476 677.906L619.16 677.906"/>
<path class="l4" d="M616.318 680.748L619.16 677.906"/>
<path class="l4" d="M613.476 677.906L616.318 680.748"/>
<path class="l4" d="M764.1 579.859L764.1 586.963"/>
<path class="l4" d="M761.258 586.963L766.942 586.963"/>
<path class="l4" d="M764.1 589.805L766.942 586.963"/>
<path class="l4" d="M761.258 586.963L764.1 589.805"/>
<path class="l4" d="M775.467 562.807L775.467 569.912"/>
<path class="l4" d="M772.625 569.912L778.309 569.912"/>
<path class="l4" d="M775.467 572.754L778.309 569.912"/>
<path class="l4" d="M772.625 569.912L775.467 572.754"/>
<path class="l4" d="M633.37 477.548L633.37 484.653"/>
<path class="l4" d="M630.528 484.653L636.212 484.653"/>
<path class="l4" d="M633.37 487.495L636.212 484.653"/>
<path class="l4" d="M630.528 484.653L633.37 487.495"/>
<path class="l4" d="M661.789 380.922L661.789 388.026"/>
<path class="l4" d="M658.947 388.026L664.631 388.026"/>
<path class="l4" d="M661.789 390.868L664.631 388.026"/>
<path class="l4" d="M658.947 388.026L661.789 390.868"/>
<path class="l4" d="M866.41 636.698L866.41 643.803"/>
<path class="l4" d="M863.568 643.803L869.252 643.803"/>
<path class="l4" d="M866.41 646.645L869.252 643.803"/>
<path class="l4" d="M863.568 643.803L866.41 646.645"/>
<path class="l4" d="M877.778 619.646L877.778 626.751"/>
<path class="l4" d="M874.936 626.751L880.62 626.751"/>
<path class="l4" d="M877.778 629.593L880.62 626.751"/>
<path class="l4" d="M874.936 626.751L877.778 629.593"/>
<path class="l5" d="M40.8216 385.185L43.6636 385.185L43.6636 388.026L40.8216 388.026L40.8216 385.185z"/>
<path class="l5" d="M40.8216 419.288L43.6636 419.288L43.6636 422.13L40.8216 422.13L40.8216 419.288z"/>
<path class="l5" d="M23.7699 504.547L26.6118 504.547L26.6118 507.389L23.7699 507.389L23.7699 504.547z"/>
<path class="l5" d="M23.7699 538.65L26.6118 538.65L26.6118 541.492L23.7699 541.492L23.7699 538.65z"/>
<path class="l5" d="M546.69 379.501L549.532 379.501L549.532 382.343L546.69 382.343L546.69 379.501z"/>
<path class="l5" d="M546.69 413.604L549.532 413.604L549.532 416.446L546.69 416.446L546.69 413.604z"/>
<path class="l5" d="M461.431 498.863L464.273 498.863L464.273 501.705L461.431 501.705L461.431 498.863z"/>
<path class="l5" d="M461.431 532.966L464.273 532.966L464.273 535.808L461.431 535.808L461.431 532.966z"/>
<path class="l5" d="M563.742 521.598L566.584 521.598L566.584 524.44L563.742 524.44L563.742 521.598z"/>
<path class="l5" d="M563.742 555.702L566.584 555.702L566.584 558.544L563.742 558.544L563.742 555.702z"/>
<path class="l5" d="M684.525 567.07L681.683 568.491L684.525 569.912L684.525 567.07"/>
<path class="l5" d="M683.104 550.018L685.946 550.018L685.946 552.86L683.104 552.86L683.104 550.018z"/>
<path class="l5" d="M660.368 567.07L663.21 567.07L663.21 569.912L660.368 569.912L660.368 567.07z"/>
<path class="l5" d="M683.104 584.122L685.946 584.122L685.946 586.963L683.104 586.963L683.104 584.122z"/>
<path class="l5" d="M684.48 568.446L684.569 568.446L684.569 568.535L684.48 568.535L684.48 568.446z"/>
<path class="l5" d="M960.195 322.661L963.037 324.082L960.195 325.503L960.195 322.661"/>
<path class="l5" d="M961.616 339.713L964.458 339.713L964.458 342.555L961.616 342.555L961.616 339.713z"/>
<path class="l5" d="M938.88 322.661L941.722 322.661L941.722 325.503L938.88 325.503L938.88 322.661z"/>
<path class="l5" d="M961.616 305.61L964.458 305.61L964.458 308.452L961.616 308.452L961.616 305.61z"/>
<path class="l5" d="M962.992 324.038L963.081 324.038L963.081 324.127L962.992 324.127L962.992 324.038z"/>
<path class="l5" d="M832.307 481.811L829.465 483.232L832.307 484.653L832.307 481.811"/>
<path class="l5" d="M830.886 464.759L833.728 464.759L833.728 467.601L830.886 467.601L830.886 464.759z"/>
<path class="l5" d="M808.15 481.811L810.992 481.811L810.992 484.653L808.15 484.653L808.15 481.811z"/>
<path class="l5" d="M830.886 498.863L833.728 498.863L833.728 501.705L830.886 501.705L830.886 498.863z"/>
<path class="l5" d="M832.262 483.188L832.351 483.188L832.351 483.276L832.262 483.276L832.262 483.188z"/>
<path class="l5" d="M738.522 663.696L741.364 665.117L738.522 666.538L738.522 663.696"/>
<path class="l5" d="M739.943 680.748L742.785 680.748L742.785 683.59L739.943 683.59L739.943 680.748z"/>
<path class="l5" d="M717.207 663.696L720.049 663.696L720.049 666.538L717.207 666.538L717.207 663.696z"/>
<path class="l5" d="M739.943 646.645L742.785 646.645L742.785 649.487L739.943 649.487L739.943 646.645z"/>
<path class="l5" d="M741.32 665.073L741.408 665.073L741.408 665.162L741.32 665.162L741.32 665.073z"/>
<path class="l5" d="M614.897 635.277L617.739 635.277L617.739 638.119L614.897 638.119L614.897 635.277z"/>
<path class="l5" d="M614.897 669.38L617.739 669.38L617.739 672.222L614.897 672.222L614.897 669.38z"/>
<path class="l5" d="M775.467 561.386L772.625 562.807L775.467 564.228L775.467 561.386"/>
<path class="l5" d="M774.046 544.334L776.888 544.334L776.888 547.176L774.046 547.176L774.046 544.334z"/>
<path class="l5" d="M751.311 561.386L754.153 561.386L754.153 564.228L751.311 564.228L751.311 561.386z"/>
<path class="l5" d="M774.046 578.438L776.888 578.438L776.888 581.28L774.046 581.28L774.046 578.438z"/>
<path class="l5" d="M775.423 562.762L775.512 562.762L775.512 562.851L775.423 562.851L775.423 562.762z"/>
<path class="l5" d="M633.37 476.127L630.528 477.548L633.37 478.969L633.37 476.127"/>
<path class="l5" d="M631.949 459.075L634.791 459.075L634.791 461.917L631.949 461.917L631.949 459.075z"/>
<path class="l5" d="M609.213 476.127L612.055 476.127L612.055 478.969L609.213 478.969L609.213 476.127z"/>
<path class="l5" d="M631.949 493.179L634.791 493.179L634.791 496.021L631.949 496.021L631.949 493.179z"/>
<path class="l5" d="M633.325 477.504L633.414 477.504L633.414 477.593L633.325 477.593L633.325 477.504z"/>
<path class="l5" d="M661.789 379.501L664.631 380.922L661.789 382.343L661.789 379.501"/>
<path class="l5" d="M660.368 362.449L663.21 362.449L663.21 365.291L660.368 365.291L660.368 362.449z"/>
<path class="l5" d="M683.104 379.501L685.946 379.501L685.946 382.343L683.104 382.343L683.104 379.501z"/>
<path class="l5" d="M660.368 396.552L663.21 396.552L663.21 399.394L660.368 399.394L660.368 396.552z"/>
<path class="l5" d="M661.745 380.877L661.834 380.877L661.834 380.966L661.745 380.966L661.745 380.877z"/>
<path class="l5" d="M783.993 385.185L786.835 386.606L783.993 388.026L783.993 385.185"/>
<path class="l5" d="M785.414 402.236L788.256 402.236L788.256 405.078L785.414 405.078L785.414 402.236z"/>
<path class="l5" d="M762.679 385.185L765.521 385.185L765.521 388.026L762.679 388.026L762.679 385.185z"/>
<path class="l5" d="M785.414 368.133L788.256 368.133L788.256 370.975L785.414 370.975L785.414 368.133z"/>
<path class="l5" d="M786.791 386.561L786.88 386.561L786.88 386.65L786.791 386.65L786.791 386.561z"/>
<path class="l5" d="M948.827 436.34L951.669 437.761L948.827 439.182L948.827 436.34"/>
<path class="l5" d="M950.248 453.392L953.09 453.392L953.09 456.233L950.248 456.233L950.248 453.392z"/>
<path class="l5" d="M927.512 436.34L930.354 436.34L930.354 439.182L927.512 439.182L927.512 436.34z"/>
<path class="l5" d="M950.248 419.288L953.09 419.288L953.09 422.13L950.248 422.13L950.248 419.288z"/>
<path class="l5" d="M951.624 437.716L951.713 437.716L951.713 437.805L951.624 437.805L951.624 437.716z"/>
<path class="l5" d="M744.206 493.179L747.048 494.6L744.206 496.021L744.206 493.179"/>
<path class="l5" d="M745.627 510.231L748.469 510.231L748.469 513.073L745.627 513.073L745.627 510.231z"/>
<path class="l5" d="M722.891 493.179L725.733 493.179L725.733 496.021L722.891 496.021L722.891 493.179z"/>
<path class="l5" d="M745.627 476.127L748.469 476.127L748.469 478.969L745.627 478.969L745.627 476.127z"/>
<path class="l5" d="M747.003 494.555L747.092 494.555L747.092 494.644L747.003 494.644L747.003 494.555z"/>
<path class="l5" d="M909.039 538.65L911.881 540.071L909.039 541.492L909.039 538.65"/>
<path class="l5" d="M910.46 555.702L913.302 555.702L913.302 558.544L910.46 558.544L910.46 555.702z"/>
<path class="l5" d="M887.725 538.65L890.567 538.65L890.567 541.492L887.725 541.492L887.725 538.65z"/>
<path class="l5" d="M910.46 521.598L913.302 521.598L913.302 524.44L910.46 524.44L910.46 521.598z"/>
<path class="l5" d="M911.837 540.027L911.926 540.027L911.926 540.116L911.837 540.116L911.837 540.027z"/>
<path class="l5" d="M852.2 368.133L849.358 369.554L852.2 370.975L852.2 368.133"/>
<path class="l5" d="M847.937 385.185L850.779 385.185L850.779 388.026L847.937 388.026L847.937 385.185z"/>
<path class="l5" d="M870.673 368.133L873.515 368.133L873.515 370.975L870.673 370.975L870.673 368.133z"/>
<path class="l5" d="M847.937 351.081L850.779 351.081L850.779 353.923L847.937 353.923L847.937 351.081z"/>
<path class="l5" d="M849.314 369.509L849.403 369.509L849.403 369.598L849.314 369.598L849.314 369.509z"/>
<path class="l5" d="M877.778 618.225L874.936 619.646L877.778 621.067L877.778 618.225"/>
<path class="l5" d="M876.357 601.173L879.199 601.173L879.199 604.015L876.357 604.015L876.357 601.173z"/>
<path class="l5" d="M853.621 618.225L856.463 618.225L856.463 621.067L853.621 621.067L853.621 618.225z"/>
<path class="l5" d="M876.357 635.277L879.199 635.277L879.199 638.119L876.357 638.119L876.357 635.277z"/>
<path class="l5" d="M877.733 619.602L877.822 619.602L877.822 619.69L877.733 619.69L877.733 619.602z"/>
<path class="l5" d="M1046.87 322.661L1049.72 322.661L1049.72 325.503L1046.87 325.503L1046.87 322.661z"/>
<path class="l5" d="M1046.87 356.765L1049.72 356.765L1049.72 359.607L1046.87 359.607L1046.87 356.765z"/>
<path class="l5" d="M1069.61 442.024L1072.45 442.024L1072.45 444.866L1069.61 444.866L1069.61 442.024z"/>
<path class="l5" d="M1069.61 476.127L1072.45 476.127L1072.45 478.969L1069.61 478.969L1069.61 476.127z"/>
<path class="l5" d="M1041.19 532.966L1044.03 532.966L1044.03 535.808L1041.19 535.808L1041.19 532.966z"/>
<path class="l5" d="M1041.19 567.07L1044.03 567.07L1044.03 569.912L1041.19 569.912L1041.19 567.07z"/>
<path class="l5" d="M40.8216 385.185L43.6636 385.185L43.6636 388.026L40.8216 388.026L40.8216 385.185z"/>
<path class="l5" d="M563.742 521.598L566.584 521.598L566.584 524.44L563.742 524.44L563.742 521.598z"/>
<path class="l5" d="M950.248 339.713L953.09 339.713L953.09 342.555L950.248 342.555L950.248 339.713z"/>
<path class="l5" d="M961.616 322.661L964.458 322.661L964.458 325.503L961.616 325.503L961.616 322.661z"/>
<path class="l5" d="M728.575 680.748L731.417 680.748L731.417 683.59L728.575 683.59L728.575 680.748z"/>
<path class="l5" d="M739.943 663.696L742.785 663.696L742.785 666.538L739.943 666.538L739.943 663.696z"/>
<path class="l5" d="M774.046 402.236L776.888 402.236L776.888 405.078L774.046 405.078L774.046 402.236z"/>
<path class="l5" d="M785.414 385.185L788.256 385.185L788.256 388.026L785.414 388.026L785.414 385.185z"/>
<path class="l5" d="M938.88 453.392L941.722 453.392L941.722 456.233L938.88 456.233L938.88 453.392z"/>
<path class="l5" d="M950.248 436.34L953.09 436.34L953.09 439.182L950.248 439.182L950.248 436.34z"/>
<path class="l5" d="M745.627 493.179L748.469 493.179L748.469 496.021L745.627 496.021L745.627 493.179z"/>
<path class="l5" d="M910.46 538.65L913.302 538.65L913.302 541.492L910.46 541.492L910.46 538.65z"/>
<path class="l5" d="M859.305 385.185L862.147 385.185L862.147 388.026L859.305 388.026L859.305 385.185z"/>
<path class="l5" d="M847.937 368.133L850.779 368.133L850.779 370.975L847.937 370.975L847.937 368.133z"/>
<path class="l5" d="M40.8216 419.288L43.6636 419.288L43.6636 422.13L40.8216 422.13L40.8216 419.288z"/>
<path class="l5" d="M23.7699 538.65L26.6118 538.65L26.6118 541.492L23.7699 541.492L23.7699 538.65z"/>
<path class="l5" d="M546.69 413.604L549.532 413.604L549.532 416.446L546.69 416.446L546.69 413.604z"/>
<path class="l5" d="M461.431 532.966L464.273 532.966L464.273 535.808L461.431 535.808L461.431 532.966z"/>
<path class="l5" d="M1041.19 567.07L1044.03 567.07L1044.03 569.912L1041.19 569.912L1041.19 567.07z"/>
<path class="l5" d="M23.7699 504.547L26.6118 504.547L26.6118 507.389L23.7699 507.389L23.7699 504.547z"/>
<path class="l5" d="M671.736 584.122L674.578 584.122L674.578 586.963L671.736 586.963L671.736 584.122z"/>
<path class="l5" d="M683.104 567.07L685.946 567.07L685.946 569.912L683.104 569.912L683.104 567.07z"/>
<path class="l5" d="M819.518 498.863L822.36 498.863L822.36 501.705L819.518 501.705L819.518 498.863z"/>
<path class="l5" d="M830.886 481.811L833.728 481.811L833.728 484.653L830.886 484.653L830.886 481.811z"/>
<path class="l5" d="M614.897 669.38L617.739 669.38L617.739 672.222L614.897 672.222L614.897 669.38z"/>
<path class="l5" d="M762.679 578.438L765.521 578.438L765.521 581.28L762.679 581.28L762.679 578.438z"/>
<path class="l5" d="M774.046 561.386L776.888 561.386L776.888 564.228L774.046 564.228L774.046 561.386z"/>
<path class="l5" d="M631.949 476.127L634.791 476.127L634.791 478.969L631.949 478.969L631.949 476.127z"/>
<path class="l5" d="M660.368 379.501L663.21 379.501L663.21 382.343L660.368 382.343L660.368 379.501z"/>
<path class="l5" d="M864.989 635.277L867.831 635.277L867.831 638.119L864.989 638.119L864.989 635.277z"/>
<path class="l5" d="M876.357 618.225L879.199 618.225L879.199 621.067L876.357 621.067L876.357 618.225z"/>
<path class="l5" d="M564.452 556.412L565.873 556.412L565.873 557.833L564.452 557.833L564.452 556.412z"/>
<path class="l5" d="M672.447 550.729L673.867 550.729L673.867 552.15L672.447 552.15L672.447 550.729z"/>
<path class="l5" d="M661.079 567.78L662.5 567.78L662.5 569.201L661.079 569.201L661.079 567.78z"/>
<path class="l5" d="M808.86 482.522L810.281 482.522L810.281 483.943L808.86 483.943L808.86 482.522z"/>
<path class="l5" d="M752.021 562.096L753.442 562.096L753.442 563.517L752.021 563.517L752.021 562.096z"/>
<path class="l5" d="M854.332 618.935L855.753 618.935L855.753 620.356L854.332 620.356L854.332 618.935z"/>
<path class="l5" d="M729.286 647.355L730.707 647.355L730.707 648.776L729.286 648.776L729.286 647.355z"/>
<path class="l5" d="M717.918 664.407L719.339 664.407L719.339 665.828L717.918 665.828L717.918 664.407z"/>
<path class="l5" d="M615.607 635.987L617.028 635.987L617.028 637.408L615.607 637.408L615.607 635.987z"/>
<path class="l5" d="M723.602 493.889L725.023 493.889L725.023 495.31L723.602 495.31L723.602 493.889z"/>
<path class="l5" d="M888.435 539.361L889.856 539.361L889.856 540.782L888.435 540.782L888.435 539.361z"/>
<text fill="#cccccc"  xml:space="preserve" font-size="5.91127" transform="translate(53.6104, 398.367)" >Vdd</text>
<text fill="#cccccc"  xml:space="preserve" font-size="5.91127" transform="translate(53.6104, 412.577)" >1.8</text>
<text fill="#cccccc"  xml:space="preserve" font-size="5.91127" transform="translate(36.5587, 517.73)" >Vss</text>
<text fill="#cccccc"  xml:space="preserve" font-size="5.91127" transform="translate(36.5587, 531.939)" >0</text>
<text fill="#cccccc"  xml:space="preserve" font-size="5.91127" transform="translate(559.479, 392.683)" >Vinp</text>
<text fill="#cccccc"  xml:space="preserve" font-size="5.91127" transform="translate(559.479, 406.893)" >0.9</text>
<text fill="#cccccc"  xml:space="preserve" font-size="5.91127" transform="translate(474.22, 512.046)" >Vinm</text>
<text fill="#cccccc"  xml:space="preserve" font-size="5.91127" transform="translate(474.22, 526.255)" >0.9</text>
<text fill="#cccccc"  xml:space="preserve" font-size="5.91127" transform="translate(576.53, 539.755)" >Ibias</text>
<text fill="#cccccc"  xml:space="preserve" font-size="5.91127" transform="translate(576.53, 546.535)" >{Ibias</text>
<text fill="#cccccc"  xml:space="preserve" font-size="5.91127" transform="translate(658.999, 556.806)" >XMbn</text>
<text fill="#ff0000"  xml:space="preserve" font-size="4.43345" transform="translate(685.946, 582.463)" >S</text>
<text fill="#ff0000"  xml:space="preserve" font-size="4.43345" transform="translate(685.946, 557.484)" >D</text>
<text fill="#ff0000"  xml:space="preserve" font-size="4.43345" transform="translate(684.525, 566.832)" >B</text>
<text fill="#ff0000"  xml:space="preserve" font-size="4.43345" transform="translate(663.473, 566.832)" >G</text>
<text fill="#cccccc"  xml:space="preserve" font-size="5.91127" transform="translate(690.209, 562.105)" >nfet_01v8</text>
<text fill="#aaaa00"  xml:space="preserve" font-size="5.91127" transform="translate(690.919, 581.674)" >1 x {Wbn / 0.15</text>
<text fill="#aaaa00"  xml:space="preserve" font-size="5.91127" transform="translate(690.919, 574.569)" >nf=1</text>
<text fill="#00ffcc"  xml:space="preserve" font-size="4.43345" transform="translate(690.209, 555.465)" >id=-</text>
<text fill="#ff7777"  xml:space="preserve" font-size="4.43345" transform="translate(690.209, 566.832)" >gm=-</text>
<text fill="#ff7777"  xml:space="preserve" font-size="2.06894" transform="translate(666.999, 580.316)" >vgs= -  </text>
<text fill="#ff7777"  xml:space="preserve" font-size="2.06894" transform="translate(666.999, 582.689)" >vds= -  </text>
<text fill="#cccccc"  xml:space="preserve" font-size="5.91127" transform="translate(933.511, 312.398)" >XMbp1</text>
<text fill="#ff0000"  xml:space="preserve" font-size="4.43345" transform="translate(964.458, 338.055)" >D</text>
<text fill="#ff0000"  xml:space="preserve" font-size="4.43345" transform="translate(964.458, 313.076)" >S</text>
<text fill="#ff0000"  xml:space="preserve" font-size="4.43345" transform="translate(963.037, 322.424)" >B</text>
<text fill="#ff0000"  xml:space="preserve" font-size="4.43345" transform="translate(941.985, 322.424)" >G</text>
<text fill="#cccccc"  xml:space="preserve" font-size="5.91127" transform="translate(968.721, 317.696)" >pfet_01v8</text>
<text fill="#aaaa00"  xml:space="preserve" font-size="5.91127" transform="translate(969.431, 337.265)" >1 x {Wbp / 0.15</text>
<text fill="#aaaa00"  xml:space="preserve" font-size="5.91127" transform="translate(969.431, 330.16)" >nf=1</text>
<text fill="#00ffcc"  xml:space="preserve" font-size="4.43345" transform="translate(968.721, 311.056)" >id=-</text>
<text fill="#ff7777"  xml:space="preserve" font-size="4.43345" transform="translate(968.721, 322.424)" >gm=-</text>
<text fill="#ff7777"  xml:space="preserve" font-size="2.06894" transform="translate(945.511, 335.908)" >vgs= -  </text>
<text fill="#ff7777"  xml:space="preserve" font-size="2.06894" transform="translate(945.511, 338.281)" >vds= -  </text>
<text fill="#cccccc"  xml:space="preserve" font-size="5.91127" transform="translate(802.781, 471.548)" >XMbp2</text>
<text fill="#ff0000"  xml:space="preserve" font-size="4.43345" transform="translate(833.728, 497.204)" >S</text>
<text fill="#ff0000"  xml:space="preserve" font-size="4.43345" transform="translate(833.728, 472.226)" >D</text>
<text fill="#ff0000"  xml:space="preserve" font-size="4.43345" transform="translate(832.307, 481.574)" >B</text>
<text fill="#ff0000"  xml:space="preserve" font-size="4.43345" transform="translate(811.255, 481.574)" >G</text>
<text fill="#cccccc"  xml:space="preserve" font-size="5.91127" transform="translate(837.991, 476.846)" >nfet_01v8</text>
<text fill="#aaaa00"  xml:space="preserve" font-size="5.91127" transform="translate(838.701, 496.415)" >1 x {Wbn / 0.15</text>
<text fill="#aaaa00"  xml:space="preserve" font-size="5.91127" transform="translate(838.701, 489.31)" >nf=1</text>
<text fill="#00ffcc"  xml:space="preserve" font-size="4.43345" transform="translate(837.991, 470.206)" >id=-</text>
<text fill="#ff7777"  xml:space="preserve" font-size="4.43345" transform="translate(837.991, 481.574)" >gm=-</text>
<text fill="#ff7777"  xml:space="preserve" font-size="2.06894" transform="translate(814.781, 495.057)" >vgs= -  </text>
<text fill="#ff7777"  xml:space="preserve" font-size="2.06894" transform="translate(814.781, 497.431)" >vds= -  </text>
<text fill="#cccccc"  xml:space="preserve" font-size="5.91127" transform="translate(716.838, 653.433)" >XMbc</text>
<text fill="#ff0000"  xml:space="preserve" font-size="4.43345" transform="translate(742.785, 679.09)" >D</text>
<text fill="#ff0000"  xml:space="preserve" font-size="4.43345" transform="translate(742.785, 654.111)" >S</text>
<text fill="#ff0000"  xml:space="preserve" font-size="4.43345" transform="translate(741.364, 663.459)" >B</text>
<text fill="#ff0000"  xml:space="preserve" font-size="4.43345" transform="translate(720.312, 663.459)" >G</text>
<text fill="#cccccc"  xml:space="preserve" font-size="5.91127" transform="translate(747.048, 658.731)" >pfet_01v8</text>
<text fill="#aaaa00"  xml:space="preserve" font-size="5.91127" transform="translate(747.758, 678.3)" >1 x {Wc / 0.15</text>
<text fill="#aaaa00"  xml:space="preserve" font-size="5.91127" transform="translate(747.758, 671.195)" >nf=1</text>
<text fill="#00ffcc"  xml:space="preserve" font-size="4.43345" transform="translate(747.048, 652.091)" >id=-</text>
<text fill="#ff7777"  xml:space="preserve" font-size="4.43345" transform="translate(747.048, 663.459)" >gm=-</text>
<text fill="#ff7777"  xml:space="preserve" font-size="2.06894" transform="translate(723.838, 676.943)" >vgs= -  </text>
<text fill="#ff7777"  xml:space="preserve" font-size="2.06894" transform="translate(723.838, 679.316)" >vds= -  </text>
<text fill="#cccccc"  xml:space="preserve" font-size="5.91127" transform="translate(627.686, 653.433)" >Ibcas</text>
<text fill="#cccccc"  xml:space="preserve" font-size="5.91127" transform="translate(627.686, 660.213)" >{Ibias</text>
<text fill="#cccccc"  xml:space="preserve" font-size="5.91127" transform="translate(753.942, 551.123)" >XM5</text>
<text fill="#ff0000"  xml:space="preserve" font-size="4.43345" transform="translate(776.888, 576.779)" >S</text>
<text fill="#ff0000"  xml:space="preserve" font-size="4.43345" transform="translate(776.888, 551.8)" >D</text>
<text fill="#ff0000"  xml:space="preserve" font-size="4.43345" transform="translate(775.467, 561.148)" >B</text>
<text fill="#ff0000"  xml:space="preserve" font-size="4.43345" transform="translate(754.416, 561.148)" >G</text>
<text fill="#cccccc"  xml:space="preserve" font-size="5.91127" transform="translate(781.151, 556.421)" >nfet_01v8</text>
<text fill="#aaaa00"  xml:space="preserve" font-size="5.91127" transform="translate(781.862, 575.99)" >1 x {W5 / 0.15</text>
<text fill="#aaaa00"  xml:space="preserve" font-size="5.91127" transform="translate(781.862, 568.885)" >nf=1</text>
<text fill="#00ffcc"  xml:space="preserve" font-size="4.43345" transform="translate(781.151, 549.781)" >id=-</text>
<text fill="#ff7777"  xml:space="preserve" font-size="4.43345" transform="translate(781.151, 561.148)" >gm=-</text>
<text fill="#ff7777"  xml:space="preserve" font-size="2.06894" transform="translate(757.942, 574.632)" >vgs= -  </text>
<text fill="#ff7777"  xml:space="preserve" font-size="2.06894" transform="translate(757.942, 577.005)" >vds= -  </text>
<text fill="#cccccc"  xml:space="preserve" font-size="5.91127" transform="translate(611.844, 465.864)" >XM1</text>
<text fill="#ff0000"  xml:space="preserve" font-size="4.43345" transform="translate(634.791, 491.521)" >S</text>
<text fill="#ff0000"  xml:space="preserve" font-size="4.43345" transform="translate(634.791, 466.542)" >D</text>
<text fill="#ff0000"  xml:space="preserve" font-size="4.43345" transform="translate(633.37, 475.89)" >B</text>
<text fill="#ff0000"  xml:space="preserve" font-size="4.43345" transform="translate(612.318, 475.89)" >G</text>
<text fill="#cccccc"  xml:space="preserve" font-size="5.91127" transform="translate(639.054, 471.162)" >nfet_01v8</text>
<text fill="#aaaa00"  xml:space="preserve" font-size="5.91127" transform="translate(639.764, 490.731)" >1 x {W1 / 0.15</text>
<text fill="#aaaa00"  xml:space="preserve" font-size="5.91127" transform="translate(639.764, 483.626)" >nf=1</text>
<text fill="#00ffcc"  xml:space="preserve" font-size="4.43345" transform="translate(639.054, 464.522)" >id=-</text>
<text fill="#ff7777"  xml:space="preserve" font-size="4.43345" transform="translate(639.054, 475.89)" >gm=-</text>
<text fill="#ff7777"  xml:space="preserve" font-size="2.06894" transform="translate(615.844, 489.374)" >vgs= -  </text>
<text fill="#ff7777"  xml:space="preserve" font-size="2.06894" transform="translate(615.844, 491.747)" >vds= -  </text>
<text fill="#cccccc"  xml:space="preserve" font-size="5.91127" transform="translate(670.315, 369.237)" >XM2</text>
<text fill="#ff0000"  xml:space="preserve" font-size="4.43345" transform="translate(657.368, 394.894)" >S</text>
<text fill="#ff0000"  xml:space="preserve" font-size="4.43345" transform="translate(656.368, 369.915)" >D</text>
<text fill="#ff0000"  xml:space="preserve" font-size="4.43345" transform="translate(658.789, 379.263)" >B</text>
<text fill="#ff0000"  xml:space="preserve" font-size="4.43345" transform="translate(678.841, 379.263)" >G</text>
<text fill="#cccccc"  xml:space="preserve" font-size="5.91127" transform="translate(625.105, 374.535)" >nfet_01v8</text>
<text fill="#aaaa00"  xml:space="preserve" font-size="5.91127" transform="translate(609.395, 394.104)" >1 x {W1 / 0.15</text>
<text fill="#aaaa00"  xml:space="preserve" font-size="5.91127" transform="translate(640.395, 387)" >nf=1</text>
<text fill="#00ffcc"  xml:space="preserve" font-size="4.43345" transform="translate(646.105, 367.895)" >id=-</text>
<text fill="#ff7777"  xml:space="preserve" font-size="4.43345" transform="translate(643.105, 379.263)" >gm=-</text>
<text fill="#ff7777"  xml:space="preserve" font-size="2.06894" transform="translate(670.315, 392.747)" >vgs= -  </text>
<text fill="#ff7777"  xml:space="preserve" font-size="2.06894" transform="translate(670.315, 395.12)" >vds= -  </text>
<text fill="#cccccc"  xml:space="preserve" font-size="5.91127" transform="translate(761.309, 374.921)" >XM3a</text>
<text fill="#ff0000"  xml:space="preserve" font-size="4.43345" transform="translate(788.256, 400.578)" >D</text>
<text fill="#ff0000"  xml:space="preserve" font-size="4.43345" transform="translate(788.256, 375.599)" >S</text>
<text fill="#ff0000"  xml:space="preserve" font-size="4.43345" transform="translate(786.835, 384.947)" >B</text>
<text fill="#ff0000"  xml:space="preserve" font-size="4.43345" transform="translate(765.784, 384.947)" >G</text>
<text fill="#cccccc"  xml:space="preserve" font-size="5.91127" transform="translate(792.519, 380.219)" >pfet_01v8</text>
<text fill="#aaaa00"  xml:space="preserve" font-size="5.91127" transform="translate(793.23, 399.788)" >1 x {W3 / 0.15</text>
<text fill="#aaaa00"  xml:space="preserve" font-size="5.91127" transform="translate(793.23, 392.683)" >nf=1</text>
<text fill="#00ffcc"  xml:space="preserve" font-size="4.43345" transform="translate(792.519, 373.579)" >id=-</text>
<text fill="#ff7777"  xml:space="preserve" font-size="4.43345" transform="translate(792.519, 384.947)" >gm=-</text>
<text fill="#ff7777"  xml:space="preserve" font-size="2.06894" transform="translate(769.309, 398.431)" >vgs= -  </text>
<text fill="#ff7777"  xml:space="preserve" font-size="2.06894" transform="translate(769.309, 400.804)" >vds= -  </text>
<text fill="#cccccc"  xml:space="preserve" font-size="5.91127" transform="translate(926.143, 426.076)" >XM4a</text>
<text fill="#ff0000"  xml:space="preserve" font-size="4.43345" transform="translate(953.09, 451.733)" >D</text>
<text fill="#ff0000"  xml:space="preserve" font-size="4.43345" transform="translate(953.09, 426.754)" >S</text>
<text fill="#ff0000"  xml:space="preserve" font-size="4.43345" transform="translate(951.669, 436.102)" >B</text>
<text fill="#ff0000"  xml:space="preserve" font-size="4.43345" transform="translate(930.617, 436.102)" >G</text>
<text fill="#cccccc"  xml:space="preserve" font-size="5.91127" transform="translate(957.353, 431.375)" >pfet_01v8</text>
<text fill="#aaaa00"  xml:space="preserve" font-size="5.91127" transform="translate(958.063, 450.944)" >1 x {W3 / 0.15</text>
<text fill="#aaaa00"  xml:space="preserve" font-size="5.91127" transform="translate(958.063, 443.839)" >nf=1</text>
<text fill="#00ffcc"  xml:space="preserve" font-size="4.43345" transform="translate(957.353, 424.735)" >id=-</text>
<text fill="#ff7777"  xml:space="preserve" font-size="4.43345" transform="translate(957.353, 436.102)" >gm=-</text>
<text fill="#ff7777"  xml:space="preserve" font-size="2.06894" transform="translate(934.143, 449.586)" >vgs= -  </text>
<text fill="#ff7777"  xml:space="preserve" font-size="2.06894" transform="translate(934.143, 451.959)" >vds= -  </text>
<text fill="#cccccc"  xml:space="preserve" font-size="5.91127" transform="translate(721.522, 482.916)" >XM3b</text>
<text fill="#ff0000"  xml:space="preserve" font-size="4.43345" transform="translate(748.469, 508.572)" >D</text>
<text fill="#ff0000"  xml:space="preserve" font-size="4.43345" transform="translate(748.469, 483.593)" >S</text>
<text fill="#ff0000"  xml:space="preserve" font-size="4.43345" transform="translate(747.048, 492.942)" >B</text>
<text fill="#ff0000"  xml:space="preserve" font-size="4.43345" transform="translate(725.996, 492.942)" >G</text>
<text fill="#cccccc"  xml:space="preserve" font-size="5.91127" transform="translate(752.732, 488.214)" >pfet_01v8</text>
<text fill="#aaaa00"  xml:space="preserve" font-size="5.91127" transform="translate(753.442, 507.783)" >1 x {Wc / 0.15</text>
<text fill="#aaaa00"  xml:space="preserve" font-size="5.91127" transform="translate(753.442, 500.678)" >nf=1</text>
<text fill="#00ffcc"  xml:space="preserve" font-size="4.43345" transform="translate(752.732, 481.574)" >id=-</text>
<text fill="#ff7777"  xml:space="preserve" font-size="4.43345" transform="translate(752.732, 492.942)" >gm=-</text>
<text fill="#ff7777"  xml:space="preserve" font-size="2.06894" transform="translate(729.522, 506.425)" >vgs= -  </text>
<text fill="#ff7777"  xml:space="preserve" font-size="2.06894" transform="translate(729.522, 508.798)" >vds= -  </text>
<text fill="#cccccc"  xml:space="preserve" font-size="5.91127" transform="translate(886.356, 528.387)" >XM4b</text>
<text fill="#ff0000"  xml:space="preserve" font-size="4.43345" transform="translate(913.302, 554.044)" >D</text>
<text fill="#ff0000"  xml:space="preserve" font-size="4.43345" transform="translate(913.302, 529.065)" >S</text>
<text fill="#ff0000"  xml:space="preserve" font-size="4.43345" transform="translate(911.881, 538.413)" >B</text>
<text fill="#ff0000"  xml:space="preserve" font-size="4.43345" transform="translate(890.83, 538.413)" >G</text>
<text fill="#cccccc"  xml:space="preserve" font-size="5.91127" transform="translate(917.565, 533.685)" >pfet_01v8</text>
<text fill="#aaaa00"  xml:space="preserve" font-size="5.91127" transform="translate(918.276, 553.254)" >1 x {Wc / 0.15</text>
<text fill="#aaaa00"  xml:space="preserve" font-size="5.91127" transform="translate(918.276, 546.149)" >nf=1</text>
<text fill="#00ffcc"  xml:space="preserve" font-size="4.43345" transform="translate(917.565, 527.045)" >id=-</text>
<text fill="#ff7777"  xml:space="preserve" font-size="4.43345" transform="translate(917.565, 538.413)" >gm=-</text>
<text fill="#ff7777"  xml:space="preserve" font-size="2.06894" transform="translate(894.356, 551.897)" >vgs= -  </text>
<text fill="#ff7777"  xml:space="preserve" font-size="2.06894" transform="translate(894.356, 554.27)" >vds= -  </text>
<text fill="#cccccc"  xml:space="preserve" font-size="5.91127" transform="translate(857.884, 357.869)" >XM6</text>
<text fill="#ff0000"  xml:space="preserve" font-size="4.43345" transform="translate(843.937, 383.526)" >D</text>
<text fill="#ff0000"  xml:space="preserve" font-size="4.43345" transform="translate(844.937, 358.547)" >S</text>
<text fill="#ff0000"  xml:space="preserve" font-size="4.43345" transform="translate(846.358, 367.895)" >B</text>
<text fill="#ff0000"  xml:space="preserve" font-size="4.43345" transform="translate(866.41, 367.895)" >G</text>
<text fill="#cccccc"  xml:space="preserve" font-size="5.91127" transform="translate(812.674, 363.168)" >pfet_01v8</text>
<text fill="#aaaa00"  xml:space="preserve" font-size="5.91127" transform="translate(796.964, 382.737)" >1 x {W6 / 0.15</text>
<text fill="#aaaa00"  xml:space="preserve" font-size="5.91127" transform="translate(827.964, 375.632)" >nf=1</text>
<text fill="#00ffcc"  xml:space="preserve" font-size="4.43345" transform="translate(833.674, 356.528)" >id=-</text>
<text fill="#ff7777"  xml:space="preserve" font-size="4.43345" transform="translate(830.674, 367.895)" >gm=-</text>
<text fill="#ff7777"  xml:space="preserve" font-size="2.06894" transform="translate(857.884, 381.379)" >vgs= -  </text>
<text fill="#ff7777"  xml:space="preserve" font-size="2.06894" transform="translate(857.884, 383.752)" >vds= -  </text>
<text fill="#cccccc"  xml:space="preserve" font-size="5.91127" transform="translate(856.252, 607.962)" >XM7</text>
<text fill="#ff0000"  xml:space="preserve" font-size="4.43345" transform="translate(879.199, 633.618)" >S</text>
<text fill="#ff0000"  xml:space="preserve" font-size="4.43345" transform="translate(879.199, 608.64)" >D</text>
<text fill="#ff0000"  xml:space="preserve" font-size="4.43345" transform="translate(877.778, 617.988)" >B</text>
<text fill="#ff0000"  xml:space="preserve" font-size="4.43345" transform="translate(856.726, 617.988)" >G</text>
<text fill="#cccccc"  xml:space="preserve" font-size="5.91127" transform="translate(883.462, 613.26)" >nfet_01v8</text>
<text fill="#aaaa00"  xml:space="preserve" font-size="5.91127" transform="translate(884.172, 632.829)" >1 x {W7 / 0.15</text>
<text fill="#aaaa00"  xml:space="preserve" font-size="5.91127" transform="translate(884.172, 625.724)" >nf=1</text>
<text fill="#00ffcc"  xml:space="preserve" font-size="4.43345" transform="translate(883.462, 606.62)" >id=-</text>
<text fill="#ff7777"  xml:space="preserve" font-size="4.43345" transform="translate(883.462, 617.988)" >gm=-</text>
<text fill="#ff7777"  xml:space="preserve" font-size="2.06894" transform="translate(860.252, 631.471)" >vgs= -  </text>
<text fill="#ff7777"  xml:space="preserve" font-size="2.06894" transform="translate(860.252, 633.845)" >vds= -  </text>
<text fill="#aaaa00"  xml:space="preserve" font-size="5.91127" transform="translate(1038.61, 331.581)" >1</text>
<text fill="#aaaa00"  xml:space="preserve" font-size="5.91127" transform="translate(1038.61, 355.738)" >2</text>
<text fill="#cccccc"  xml:space="preserve" font-size="5.91127" transform="translate(1056.82, 335.844)" >Rc</text>
<text fill="#cccccc"  xml:space="preserve" font-size="5.91127" transform="translate(1056.82, 342.949)" >{Rc</text>
<text fill="#cccccc"  xml:space="preserve" font-size="5.91127" transform="translate(1056.82, 350.054)" >m=1</text>
<text fill="#aaaa00"  xml:space="preserve" font-size="5.91127" transform="translate(1064.19, 450.944)" >1</text>
<text fill="#aaaa00"  xml:space="preserve" font-size="5.91127" transform="translate(1064.19, 475.1)" >2</text>
<text fill="#cccccc"  xml:space="preserve" font-size="5.91127" transform="translate(1079.56, 455.206)" >Cc</text>
<text fill="#cccccc"  xml:space="preserve" font-size="5.91127" transform="translate(1079.56, 462.311)" >{Cc</text>
<text fill="#cccccc"  xml:space="preserve" font-size="5.91127" transform="translate(1079.56, 469.416)" >m=1</text>
<text fill="#aaaa00"  xml:space="preserve" font-size="5.91127" transform="translate(1035.77, 541.886)" >1</text>
<text fill="#aaaa00"  xml:space="preserve" font-size="5.91127" transform="translate(1035.77, 566.043)" >2</text>
<text fill="#cccccc"  xml:space="preserve" font-size="5.91127" transform="translate(1051.14, 546.149)" >CL</text>
<text fill="#cccccc"  xml:space="preserve" font-size="5.91127" transform="translate(1051.14, 553.254)" >5p</text>
<text fill="#cccccc"  xml:space="preserve" font-size="5.91127" transform="translate(1051.14, 560.359)" >m=1</text>
<text fill="#00ddff"  xml:space="preserve" font-size="5.91127" transform="translate(35.1377, 372.079)" >VDD</text>
<text fill="#00ddff"  xml:space="preserve" font-size="5.91127" transform="translate(558.058, 508.493)" >VDD</text>
<text fill="#00ddff"  xml:space="preserve" font-size="5.91127" transform="translate(944.564, 326.608)" >VDD</text>
<text fill="#00ddff"  xml:space="preserve" font-size="5.91127" transform="translate(955.932, 309.556)" >VDD</text>
<text fill="#00ddff"  xml:space="preserve" font-size="5.91127" transform="translate(722.891, 667.643)" >VDD</text>
<text fill="#00ddff"  xml:space="preserve" font-size="5.91127" transform="translate(734.259, 650.591)" >VDD</text>
<text fill="#00ddff"  xml:space="preserve" font-size="5.91127" transform="translate(768.363, 389.131)" >VDD</text>
<text fill="#00ddff"  xml:space="preserve" font-size="5.91127" transform="translate(779.73, 372.079)" >VDD</text>
<text fill="#00ddff"  xml:space="preserve" font-size="5.91127" transform="translate(933.196, 440.286)" >VDD</text>
<text fill="#00ddff"  xml:space="preserve" font-size="5.91127" transform="translate(944.564, 423.234)" >VDD</text>
<text fill="#00ddff"  xml:space="preserve" font-size="5.91127" transform="translate(739.943, 480.074)" >VDD</text>
<text fill="#00ddff"  xml:space="preserve" font-size="5.91127" transform="translate(904.776, 525.545)" >VDD</text>
<text fill="#00ddff"  xml:space="preserve" font-size="5.91127" transform="translate(853.621, 372.079)" >VDD</text>
<text fill="#00ddff"  xml:space="preserve" font-size="5.91127" transform="translate(842.253, 355.028)" >VDD</text>
<text fill="#00ddff"  xml:space="preserve" font-size="5.91127" transform="translate(46.5055, 428.918)" >GND</text>
<text fill="#00ddff"  xml:space="preserve" font-size="5.91127" transform="translate(29.4538, 548.281)" >GND</text>
<text fill="#00ddff"  xml:space="preserve" font-size="5.91127" transform="translate(552.374, 423.234)" >GND</text>
<text fill="#00ddff"  xml:space="preserve" font-size="5.91127" transform="translate(467.115, 542.597)" >GND</text>
<text fill="#00ddff"  xml:space="preserve" font-size="5.91127" transform="translate(1046.87, 576.7)" >GND</text>
<text fill="#00ddff"  xml:space="preserve" font-size="5.91127" transform="translate(29.4538, 514.177)" >VSS</text>
<text fill="#00ddff"  xml:space="preserve" font-size="5.91127" transform="translate(677.42, 593.752)" >VSS</text>
<text fill="#00ddff"  xml:space="preserve" font-size="5.91127" transform="translate(688.788, 576.7)" >VSS</text>
<text fill="#00ddff"  xml:space="preserve" font-size="5.91127" transform="translate(825.202, 508.493)" >VSS</text>
<text fill="#00ddff"  xml:space="preserve" font-size="5.91127" transform="translate(836.57, 491.441)" >VSS</text>
<text fill="#00ddff"  xml:space="preserve" font-size="5.91127" transform="translate(620.581, 679.011)" >VSS</text>
<text fill="#00ddff"  xml:space="preserve" font-size="5.91127" transform="translate(768.363, 588.068)" >VSS</text>
<text fill="#00ddff"  xml:space="preserve" font-size="5.91127" transform="translate(779.73, 571.016)" >VSS</text>
<text fill="#00ddff"  xml:space="preserve" font-size="5.91127" transform="translate(637.633, 485.758)" >VSS</text>
<text fill="#00ddff"  xml:space="preserve" font-size="5.91127" transform="translate(666.052, 389.131)" >VSS</text>
<text fill="#00ddff"  xml:space="preserve" font-size="5.91127" transform="translate(870.673, 644.907)" >VSS</text>
<text fill="#00ddff"  xml:space="preserve" font-size="5.91127" transform="translate(882.041, 627.855)" >VSS</text>
<text fill="#00ddff"  xml:space="preserve" font-size="9.7536" transform="translate(534.9, 561.361)" >biasn</text>
<text fill="#00ddff"  xml:space="preserve" font-size="9.7536" transform="translate(642.894, 555.677)" >biasn</text>
<text fill="#00ddff"  xml:space="preserve" font-size="9.7536" transform="translate(631.526, 572.729)" >biasn</text>
<text fill="#00ddff"  xml:space="preserve" font-size="9.7536" transform="translate(779.308, 487.47)" >biasn</text>
<text fill="#00ddff"  xml:space="preserve" font-size="9.7536" transform="translate(722.469, 567.045)" >biasn</text>
<text fill="#00ddff"  xml:space="preserve" font-size="9.7536" transform="translate(824.779, 623.884)" >biasn</text>
<text fill="#00ddff"  xml:space="preserve" font-size="9.7536" transform="translate(703.733, 652.304)" >pcas</text>
<text fill="#00ddff"  xml:space="preserve" font-size="9.7536" transform="translate(692.365, 669.355)" >pcas</text>
<text fill="#00ddff"  xml:space="preserve" font-size="9.7536" transform="translate(590.055, 640.936)" >pcas</text>
<text fill="#00ddff"  xml:space="preserve" font-size="9.7536" transform="translate(698.049, 498.838)" >pcas</text>
<text fill="#00ddff"  xml:space="preserve" font-size="9.7536" transform="translate(862.883, 544.309)" >pcas</text>
<path class="l1" d="M548.111 380.922L684.525 380.922"/>
<path class="l1" d="M462.852 500.284L610.634 500.284"/>
<path class="l1" d="M610.634 477.548L610.634 500.284"/>
<path class="l1" d="M906.197 307.031L951.669 307.031"/>
<path class="l1" d="M906.197 307.031L906.197 363.87"/>
<path class="l1" d="M906.197 324.082L940.301 324.082"/>
<path class="l1" d="M906.197 324.082L906.197 363.87"/>
<path class="l1" d="M820.939 466.18L906.197 466.18"/>
<path class="l1" d="M906.197 363.87L906.197 466.18"/>
<path class="l1" d="M684.525 545.755L764.1 545.755"/>
<path class="l1" d="M684.525 477.548L684.525 545.755"/>
<path class="l1" d="M622.002 494.6L684.525 494.6"/>
<path class="l1" d="M684.525 477.548L684.525 494.6"/>
<path class="l1" d="M673.157 397.973L684.525 397.973"/>
<path class="l1" d="M684.525 397.973L684.525 477.548"/>
<path class="l1" d="M622.002 460.496L764.1 460.496"/>
<path class="l1" d="M764.1 437.761L764.1 460.496"/>
<path class="l1" d="M764.1 386.606L764.1 437.761"/>
<path class="l1" d="M764.1 437.761L928.933 437.761"/>
<path class="l1" d="M735.68 477.548L764.1 477.548"/>
<path class="l1" d="M764.1 437.761L764.1 477.548"/>
<path class="l1" d="M673.157 363.87L872.094 363.87"/>
<path class="l1" d="M872.094 363.87L872.094 392.289"/>
<path class="l1" d="M872.094 523.019L900.514 523.019"/>
<path class="l1" d="M872.094 392.289L872.094 523.019"/>
<path class="l1" d="M872.094 369.554L872.094 392.289"/>
<path class="l1" d="M872.094 324.082L1048.3 324.082"/>
<path class="l1" d="M872.094 324.082L872.094 392.289"/>
<path class="l1" d="M735.68 369.554L775.467 369.554"/>
<path class="l1" d="M735.68 369.554L735.68 511.652"/>
<path class="l1" d="M900.514 420.709L940.301 420.709"/>
<path class="l1" d="M900.514 420.709L900.514 557.123"/>
<path class="l1" d="M860.726 352.502L963.037 352.502"/>
<path class="l1" d="M963.037 352.502L963.037 494.6"/>
<path class="l1" d="M866.41 602.594L963.037 602.594"/>
<path class="l1" d="M963.037 494.6L963.037 602.594"/>
<path class="l1" d="M963.037 477.548L1071.03 477.548"/>
<path class="l1" d="M963.037 477.548L963.037 494.6"/>
<path class="l1" d="M963.037 534.387L1042.61 534.387"/>
<path class="l1" d="M963.037 494.6L963.037 534.387"/>
<path class="l1" d="M1048.3 358.186L1071.03 358.186"/>
<path class="l1" d="M1071.03 358.186L1071.03 443.445"/>
<circle class="l1" cx="872.094" cy="363.87" r="2.10305"/>
<circle class="l1" cx="764.1" cy="460.496" r="2.10305"/>
<circle class="l1" cx="684.525" cy="494.6" r="2.10305"/>
<circle class="l1" cx="872.094" cy="392.289" r="2.10305"/>
<circle class="l1" cx="872.094" cy="369.554" r="2.10305"/>
<circle class="l1" cx="872.094" cy="392.289" r="2.10305"/>
<circle class="l1" cx="872.094" cy="392.289" r="2.10305"/>
<circle class="l1" cx="900.514" cy="523.019" r="2.10305"/>
<circle class="l1" cx="872.094" cy="363.87" r="2.10305"/>
<circle class="l1" cx="872.094" cy="392.289" r="2.10305"/>
<circle class="l1" cx="764.1" cy="437.761" r="2.10305"/>
<circle class="l1" cx="735.68" cy="477.548" r="2.10305"/>
<circle class="l1" cx="764.1" cy="437.761" r="2.10305"/>
<circle class="l1" cx="764.1" cy="437.761" r="2.10305"/>
<circle class="l1" cx="764.1" cy="437.761" r="2.10305"/>
<circle class="l1" cx="764.1" cy="460.496" r="2.10305"/>
<circle class="l1" cx="684.525" cy="477.548" r="2.10305"/>
<circle class="l1" cx="684.525" cy="477.548" r="2.10305"/>
<circle class="l1" cx="684.525" cy="494.6" r="2.10305"/>
<circle class="l1" cx="684.525" cy="477.548" r="2.10305"/>
<circle class="l1" cx="906.197" cy="324.082" r="2.10305"/>
<circle class="l1" cx="906.197" cy="363.87" r="2.10305"/>
<circle class="l1" cx="906.197" cy="324.082" r="2.10305"/>
<circle class="l1" cx="940.301" cy="324.082" r="2.10305"/>
<circle class="l1" cx="906.197" cy="363.87" r="2.10305"/>
<circle class="l1" cx="963.037" cy="494.6" r="2.10305"/>
<circle class="l1" cx="963.037" cy="534.387" r="2.10305"/>
<circle class="l1" cx="963.037" cy="534.387" r="2.10305"/>
<circle class="l1" cx="963.037" cy="477.548" r="2.10305"/>
<circle class="l1" cx="963.037" cy="494.6" r="2.10305"/>
<circle class="l1" cx="963.037" cy="477.548" r="2.10305"/>
<circle class="l1" cx="963.037" cy="494.6" r="2.10305"/>
<circle class="l1" cx="963.037" cy="494.6" r="2.10305"/>
<circle class="l1" cx="906.197" cy="363.87" r="2.10305"/>
<text fill="#cccccc"  xml:space="preserve" font-size="17.7338" transform="translate(25.1909, 181.035)" >SKY130 Two-Stage Miller OTA — NMOS input, cascode PMOS load</text>
<text fill="#cccccc"  xml:space="preserve" font-size="11.8225" transform="translate(25.1909, 198.403)" >Cascode load in first stage for higher gain and CMRR</text>
<text fill="#cccccc"  xml:space="preserve" font-size="11.8225" transform="translate(25.1909, 215.455)" >=== BIAS GENERATION ===</text>
<text fill="#cccccc"  xml:space="preserve" font-size="11.8225" transform="translate(25.1909, 232.507)" >PMOS bias mirror</text>
<text fill="#cccccc"  xml:space="preserve" font-size="11.8225" transform="translate(25.1909, 249.559)" >Cascode PMOS bias — diode-connected for gate voltage</text>
<text fill="#cccccc"  xml:space="preserve" font-size="11.8225" transform="translate(25.1909, 266.61)" >=== FIRST STAGE ===</text>
<text fill="#cccccc"  xml:space="preserve" font-size="11.8225" transform="translate(25.1909, 283.662)" >=== SECOND STAGE ===</text>
<text fill="#cccccc"  xml:space="preserve" font-size="11.8225" transform="translate(25.1909, 300.714)" >=== Miller compensation ===</text>
<text fill="#cccccc"  xml:space="preserve" font-size="11.8225" transform="translate(25.1909, 317.766)" >=== Load ===</text>
</svg>
