<svg xmlns="http://www.w3.org/2000/svg" xmlns:xlink="http://www.w3.org/1999/xlink" width="1111" height="694" version="1.1">
<style type="text/css">
.l0{
  fill: #000000;
  stroke: #000000;
  stroke-linecap:round;
  stroke-linejoin:round;
  stroke-width: 0.796744;
}
.l1{
  fill: #00ddff;
  stroke: #00ddff;
  stroke-linecap:round;
  stroke-linejoin:round;
  stroke-width: 0.796744;
}
.l2{
  fill: #4f4f4f; fill-opacity: 0.2;
  stroke: #4f4f4f;
  stroke-linecap:round;
  stroke-linejoin:round;
  stroke-width: 0.796744;
}
.l3{
  fill: #cccccc; fill-opacity: 0.5;
  stroke: #cccccc;
  stroke-linecap:round;
  stroke-linejoin:round;
  stroke-width: 0.796744;
}
.l4{
  fill: #88dd00;
  stroke: #88dd00;
  stroke-linecap:round;
  stroke-linejoin:round;
  stroke-width: 0.796744;
}
.l5{
  fill: #bb2200;
  stroke: #bb2200;
  stroke-linecap:round;
  stroke-linejoin:round;
  stroke-width: 0.796744;
}
.l6{
  fill: #00aaff; fill-opacity: 0.5;
  stroke: #00aaff;
  stroke-linecap:round;
  stroke-linejoin:round;
  stroke-width: 0.796744;
}
.l7{
  fill: #ff0000; fill-opacity: 0.5;
  stroke: #ff0000;
  stroke-linecap:round;
  stroke-linejoin:round;
  stroke-width: 0.796744;
}
.l8{
  fill: #ffff00; fill-opacity: 0.5;
  stroke: #ffff00;
  stroke-linecap:round;
  stroke-linejoin:round;
  stroke-width: 0.796744;
}
.l9{
  fill: #ffffff; fill-opacity: 0.5;
  stroke: #ffffff;
  stroke-linecap:round;
  stroke-linejoin:round;
  stroke-width: 0.796744;
}
.l10{
  fill: #ff00ff;
  stroke: #ff00ff;
  stroke-linecap:round;
  stroke-linejoin:round;
  stroke-width: 0.796744;
}
.l11{
  fill: #00ff00; fill-opacity: 0.5;
  stroke: #00ff00;
  stroke-linecap:round;
  stroke-linejoin:round;
  stroke-width: 0.796744;
}
.l12{
  fill: #0044ff; fill-opacity: 0.5;
  stroke: #0044ff;
  stroke-linecap:round;
  stroke-linejoin:round;
  stroke-width: 0.796744;
}
.l13{
  fill: #aaaa00; fill-opacity: 0.5;
  stroke: #aaaa00;
  stroke-linecap:round;
  stroke-linejoin:round;
  stroke-width: 0.796744;
}
.l14{
  fill: #aaccaa; fill-opacity: 0.2;
  stroke: #aaccaa;
  stroke-linecap:round;
  stroke-linejoin:round;
  stroke-width: 0.796744;
}
.l15{
  fill: #ff7777; fill-opacity: 0.5;
  stroke: #ff7777;
  stroke-linecap:round;
  stroke-linejoin:round;
  stroke-width: 0.796744;
}
.l16{
  fill: #bfff81; fill-opacity: 0.5;
  stroke: #bfff81;
  stroke-linecap:round;
  stroke-linejoin:round;
  stroke-width: 0.796744;
}
.l17{
  fill: #00ffcc; fill-opacity: 0.2;
  stroke: #00ffcc;
  stroke-linecap:round;
  stroke-linejoin:round;
  stroke-width: 0.796744;
}
.l18{
  fill: #ce0097; fill-opacity: 0.5;
  stroke: #ce0097;
  stroke-linecap:round;
  stroke-linejoin:round;
  stroke-width: 0.796744;
}
.l19{
  fill: #d2d46b; fill-opacity: 0.2;
  stroke: #d2d46b;
  stroke-linecap:round;
  stroke-linejoin:round;
  stroke-width: 0.796744;
}
.l20{
  fill: #ef6158; fill-opacity: 0.2;
  stroke: #ef6158;
  stroke-linecap:round;
  stroke-linejoin:round;
  stroke-width: 0.796744;
}
.l21{
  fill: #fdb200; fill-opacity: 0.2;
  stroke: #fdb200;
  stroke-linecap:round;
  stroke-linejoin:round;
  stroke-width: 0.796744;
}
text {font-family: Sans-Serif;}
</style>
<rect class="l0" x="0" y="0" width="1111" height="694"/>
<path class="l4" d="M26.9932 266.804L29.9441 266.804"/>
<path class="l4" d="M28.4686 265.329L28.4686 268.28"/>
<path class="l4" d="M25.5177 262.378L25.5177 297.789"/>
<circle class="l4" cx="25.5177" cy="280.083" r="8.85271" style="fill:none;" />
<path class="l4" d="M38.7968 390.742L41.7477 390.742"/>
<path class="l4" d="M40.2722 389.267L40.2722 392.218"/>
<path class="l4" d="M37.3213 386.316L37.3213 421.727"/>
<circle class="l4" cx="37.3213" cy="404.021" r="8.85271" style="fill:none;" />
<path class="l4" d="M605.37 260.903L608.321 260.903"/>
<path class="l4" d="M606.846 259.427L606.846 262.378"/>
<path class="l4" d="M603.895 256.476L603.895 291.887"/>
<circle class="l4" cx="603.895" cy="274.182" r="8.85271" style="fill:none;" />
<path class="l4" d="M546.352 355.331L549.303 355.331"/>
<path class="l4" d="M547.828 353.856L547.828 356.807"/>
<path class="l4" d="M544.877 350.905L544.877 386.316"/>
<circle class="l4" cx="544.877" cy="368.611" r="8.85271" style="fill:none;" />
<path class="l4" d="M509.466 474.843L509.466 483.696"/>
<path class="l4" d="M509.466 501.401L509.466 510.254"/>
<path class="l4" d="M510.941 479.269L513.892 479.269"/>
<path class="l4" d="M512.417 477.794L512.417 480.745"/>
<path class="l4" d="M509.466 488.122L509.466 494.024L510.941 494.024L509.466 498.45L507.99 494.024L509.466 494.024L509.466 488.122"/>
<circle class="l4" cx="509.466" cy="492.548" r="8.85271" style="fill:none;" />
<path class="l4" d="M590.616 544.189L590.616 570.747"/>
<path class="l4" d="M574.386 557.468L587.665 557.468"/>
<path class="l4" d="M597.993 539.763L597.993 547.14"/>
<path class="l4" d="M597.993 567.797L597.993 575.174"/>
<path class="l4" d="M587.665 548.616L587.665 566.321"/>
<path class="l4" d="M590.616 547.14L597.993 547.14"/>
<path class="l4" d="M590.616 567.797L595.042 567.797"/>
<path class="l4" d="M595.042 566.321L597.993 567.797L595.042 569.272L595.042 566.321"/>
<path class="l4" d="M814.884 555.993L814.884 582.551"/>
<path class="l4" d="M822.262 551.567L822.262 558.944"/>
<path class="l4" d="M822.262 579.6L822.262 586.977"/>
<path class="l4" d="M811.934 560.419L811.934 578.125"/>
<path class="l4" d="M814.884 579.6L822.262 579.6"/>
<path class="l4" d="M817.835 558.944L822.262 558.944"/>
<path class="l4" d="M798.654 569.272L806.032 569.272"/>
<path class="l4" d="M817.835 557.468L814.884 558.944L817.835 560.419L817.835 557.468"/>
<circle class="l4" cx="808.983" cy="569.272" r="2.9509" style="fill:none;" />
<path class="l4" d="M708.652 520.582L708.652 547.14"/>
<path class="l4" d="M692.422 533.861L705.701 533.861"/>
<path class="l4" d="M716.029 516.156L716.029 523.533"/>
<path class="l4" d="M716.029 544.189L716.029 551.567"/>
<path class="l4" d="M705.701 525.008L705.701 542.714"/>
<path class="l4" d="M708.652 523.533L716.029 523.533"/>
<path class="l4" d="M708.652 544.189L713.078 544.189"/>
<path class="l4" d="M713.078 542.714L716.029 544.189L713.078 545.665L713.078 542.714"/>
<path class="l4" d="M627.502 645.995L627.502 654.848"/>
<path class="l4" d="M627.502 672.554L627.502 681.406"/>
<path class="l4" d="M628.978 650.422L631.928 650.422"/>
<path class="l4" d="M630.453 648.946L630.453 651.897"/>
<path class="l4" d="M627.502 659.275L627.502 665.176L628.978 665.176L627.502 669.603L626.027 665.176L627.502 665.176L627.502 659.275"/>
<circle class="l4" cx="627.502" cy="663.701" r="8.85271" style="fill:none;" />
<path class="l4" d="M744.063 620.913L744.063 647.471"/>
<path class="l4" d="M727.833 634.192L741.112 634.192"/>
<path class="l4" d="M751.44 616.486L751.44 623.864"/>
<path class="l4" d="M751.44 644.52L751.44 651.897"/>
<path class="l4" d="M741.112 625.339L741.112 643.045"/>
<path class="l4" d="M744.063 623.864L751.44 623.864"/>
<path class="l4" d="M744.063 644.52L748.489 644.52"/>
<path class="l4" d="M748.489 643.045L751.44 644.52L748.489 645.995L748.489 643.045"/>
<path class="l4" d="M631.928 426.153L631.928 452.711"/>
<path class="l4" d="M615.698 439.432L628.978 439.432"/>
<path class="l4" d="M639.306 421.727L639.306 429.104"/>
<path class="l4" d="M639.306 449.76L639.306 457.138"/>
<path class="l4" d="M628.978 430.58L628.978 448.285"/>
<path class="l4" d="M631.928 429.104L639.306 429.104"/>
<path class="l4" d="M631.928 449.76L636.355 449.76"/>
<path class="l4" d="M636.355 448.285L639.306 449.76L636.355 451.236L636.355 448.285"/>
<path class="l4" d="M732.259 266.804L732.259 293.363"/>
<path class="l4" d="M716.029 280.083L729.308 280.083"/>
<path class="l4" d="M739.636 262.378L739.636 269.755"/>
<path class="l4" d="M739.636 290.412L739.636 297.789"/>
<path class="l4" d="M729.308 271.231L729.308 288.936"/>
<path class="l4" d="M732.259 269.755L739.636 269.755"/>
<path class="l4" d="M732.259 290.412L736.685 290.412"/>
<path class="l4" d="M736.685 288.936L739.636 290.412L736.685 291.887L736.685 288.936"/>
<path class="l4" d="M806.032 325.822L806.032 352.381"/>
<path class="l4" d="M808.983 339.102L822.262 339.102"/>
<path class="l4" d="M798.654 321.396L798.654 328.773"/>
<path class="l4" d="M798.654 349.43L798.654 356.807"/>
<path class="l4" d="M808.983 330.249L808.983 347.954"/>
<path class="l4" d="M798.654 328.773L806.032 328.773"/>
<path class="l4" d="M801.605 349.43L806.032 349.43"/>
<path class="l4" d="M801.605 347.954L798.654 349.43L801.605 350.905L801.605 347.954"/>
<path class="l4" d="M897.51 166.474L897.51 193.032"/>
<path class="l4" d="M904.887 162.047L904.887 169.425"/>
<path class="l4" d="M904.887 190.081L904.887 197.458"/>
<path class="l4" d="M894.559 170.9L894.559 188.605"/>
<path class="l4" d="M897.51 190.081L904.887 190.081"/>
<path class="l4" d="M900.461 169.425L904.887 169.425"/>
<path class="l4" d="M881.28 179.753L888.657 179.753"/>
<path class="l4" d="M900.461 167.949L897.51 169.425L900.461 170.9L900.461 167.949"/>
<circle class="l4" cx="891.608" cy="179.753" r="2.9509" style="fill:none;" />
<path class="l4" d="M891.608 284.51L891.608 311.068"/>
<path class="l4" d="M898.985 280.083L898.985 287.461"/>
<path class="l4" d="M898.985 308.117L898.985 315.494"/>
<path class="l4" d="M888.657 288.936L888.657 306.642"/>
<path class="l4" d="M891.608 308.117L898.985 308.117"/>
<path class="l4" d="M894.559 287.461L898.985 287.461"/>
<path class="l4" d="M875.378 297.789L882.755 297.789"/>
<path class="l4" d="M894.559 285.985L891.608 287.461L894.559 288.936L894.559 285.985"/>
<circle class="l4" cx="885.706" cy="297.789" r="2.9509" style="fill:none;" />
<path class="l4" d="M941.773 367.135L941.773 393.693"/>
<path class="l4" d="M934.396 362.709L934.396 370.086"/>
<path class="l4" d="M934.396 390.742L934.396 398.12"/>
<path class="l4" d="M944.724 371.561L944.724 389.267"/>
<path class="l4" d="M934.396 390.742L941.773 390.742"/>
<path class="l4" d="M934.396 370.086L938.822 370.086"/>
<path class="l4" d="M950.626 380.414L958.003 380.414"/>
<path class="l4" d="M938.822 368.611L941.773 370.086L938.822 371.561L938.822 368.611"/>
<circle class="l4" cx="947.675" cy="380.414" r="2.9509" style="fill:none;" />
<path class="l4" d="M811.934 455.662L811.934 482.22"/>
<path class="l4" d="M814.884 468.941L828.163 468.941"/>
<path class="l4" d="M804.556 451.236L804.556 458.613"/>
<path class="l4" d="M804.556 479.269L804.556 486.647"/>
<path class="l4" d="M814.884 460.089L814.884 477.794"/>
<path class="l4" d="M804.556 458.613L811.934 458.613"/>
<path class="l4" d="M807.507 479.269L811.934 479.269"/>
<path class="l4" d="M807.507 477.794L804.556 479.269L807.507 480.745L807.507 477.794"/>
<path class="l4" d="M1005.22 285.985L1005.22 291.887"/>
<path class="l4" d="M1005.22 285.985L1009.64 284.51"/>
<path class="l4" d="M1000.79 281.559L1009.64 284.51"/>
<path class="l4" d="M1000.79 281.559L1009.64 278.608"/>
<path class="l4" d="M1000.79 275.657L1009.64 278.608"/>
<path class="l4" d="M1000.79 275.657L1009.64 272.706"/>
<path class="l4" d="M1000.79 269.755L1009.64 272.706"/>
<path class="l4" d="M1000.79 269.755L1009.64 266.804"/>
<path class="l4" d="M1000.79 263.853L1009.64 266.804"/>
<path class="l4" d="M1000.79 263.853L1005.22 262.378"/>
<path class="l4" d="M1005.22 256.476L1005.22 262.378"/>
<path class="l4" d="M1006.69 260.903L1009.64 260.903"/>
<path class="l4" d="M1008.17 259.427L1008.17 262.378"/>
<path class="l4" d="M1070.14 365.66L1070.14 380.414"/>
<path class="l4" d="M1070.14 345.003L1070.14 359.758"/>
<path class="l4" d="M1064.24 359.758L1076.04 359.758"/>
<path class="l4" d="M1064.24 365.66L1076.04 365.66"/>
<path class="l4" d="M1071.61 349.43L1074.56 349.43"/>
<path class="l4" d="M1073.09 347.954L1073.09 350.905"/>
<path class="l4" d="M1017.02 483.696L1017.02 498.45"/>
<path class="l4" d="M1017.02 463.039L1017.02 477.794"/>
<path class="l4" d="M1011.12 477.794L1022.92 477.794"/>
<path class="l4" d="M1011.12 483.696L1022.92 483.696"/>
<path class="l4" d="M1018.5 467.466L1021.45 467.466"/>
<path class="l4" d="M1019.97 465.99L1019.97 468.941"/>
<path class="l4" d="M25.5177 250.574L25.5177 262.378"/>
<path class="l4" d="M19.6159 250.574L31.4195 250.574"/>
<path class="l4" d="M509.466 463.039L509.466 474.843"/>
<path class="l4" d="M503.564 463.039L515.368 463.039"/>
<path class="l4" d="M810.458 575.174L810.458 586.977"/>
<path class="l4" d="M804.556 575.174L816.36 575.174"/>
<path class="l4" d="M822.262 557.468L822.262 569.272"/>
<path class="l4" d="M816.36 557.468L828.163 557.468"/>
<path class="l4" d="M627.502 634.192L627.502 645.995"/>
<path class="l4" d="M621.6 634.192L633.404 634.192"/>
<path class="l4" d="M893.083 185.655L893.083 197.458"/>
<path class="l4" d="M887.182 185.655L898.985 185.655"/>
<path class="l4" d="M904.887 167.949L904.887 179.753"/>
<path class="l4" d="M898.985 167.949L910.789 167.949"/>
<path class="l4" d="M887.182 303.691L887.182 315.494"/>
<path class="l4" d="M881.28 303.691L893.083 303.691"/>
<path class="l4" d="M898.985 285.985L898.985 297.789"/>
<path class="l4" d="M893.083 285.985L904.887 285.985"/>
<path class="l4" d="M946.2 386.316L946.2 398.12"/>
<path class="l4" d="M940.298 386.316L952.101 386.316"/>
<path class="l4" d="M934.396 368.611L934.396 380.414"/>
<path class="l4" d="M928.494 368.611L940.298 368.611"/>
<path class="l4" d="M25.5177 297.789L25.5177 305.166"/>
<path class="l4" d="M22.5668 305.166L28.4686 305.166"/>
<path class="l4" d="M25.5177 308.117L28.4686 305.166"/>
<path class="l4" d="M22.5668 305.166L25.5177 308.117"/>
<path class="l4" d="M37.3213 421.727L37.3213 429.104"/>
<path class="l4" d="M34.3704 429.104L40.2722 429.104"/>
<path class="l4" d="M37.3213 432.055L40.2722 429.104"/>
<path class="l4" d="M34.3704 429.104L37.3213 432.055"/>
<path class="l4" d="M603.895 291.887L603.895 299.264"/>
<path class="l4" d="M600.944 299.264L606.846 299.264"/>
<path class="l4" d="M603.895 302.215L606.846 299.264"/>
<path class="l4" d="M600.944 299.264L603.895 302.215"/>
<path class="l4" d="M544.877 386.316L544.877 393.693"/>
<path class="l4" d="M541.926 393.693L547.828 393.693"/>
<path class="l4" d="M544.877 396.644L547.828 393.693"/>
<path class="l4" d="M541.926 393.693L544.877 396.644"/>
<path class="l4" d="M1017.02 498.45L1017.02 505.828"/>
<path class="l4" d="M1014.07 505.828L1019.97 505.828"/>
<path class="l4" d="M1017.02 508.778L1019.97 505.828"/>
<path class="l4" d="M1014.07 505.828L1017.02 508.778"/>
<path class="l4" d="M37.3213 386.316L37.3213 393.693"/>
<path class="l4" d="M34.3704 393.693L40.2722 393.693"/>
<path class="l4" d="M37.3213 396.644L40.2722 393.693"/>
<path class="l4" d="M34.3704 393.693L37.3213 396.644"/>
<path class="l4" d="M586.189 575.174L586.189 582.551"/>
<path class="l4" d="M583.238 582.551L589.14 582.551"/>
<path class="l4" d="M586.189 585.502L589.14 582.551"/>
<path class="l4" d="M583.238 582.551L586.189 585.502"/>
<path class="l4" d="M597.993 557.468L597.993 564.846"/>
<path class="l4" d="M595.042 564.846L600.944 564.846"/>
<path class="l4" d="M597.993 567.797L600.944 564.846"/>
<path class="l4" d="M595.042 564.846L597.993 567.797"/>
<path class="l4" d="M704.226 551.567L704.226 558.944"/>
<path class="l4" d="M701.275 558.944L707.176 558.944"/>
<path class="l4" d="M704.226 561.895L707.176 558.944"/>
<path class="l4" d="M701.275 558.944L704.226 561.895"/>
<path class="l4" d="M716.029 533.861L716.029 541.238"/>
<path class="l4" d="M713.078 541.238L718.98 541.238"/>
<path class="l4" d="M716.029 544.189L718.98 541.238"/>
<path class="l4" d="M713.078 541.238L716.029 544.189"/>
<path class="l4" d="M739.636 651.897L739.636 659.275"/>
<path class="l4" d="M736.685 659.275L742.587 659.275"/>
<path class="l4" d="M739.636 662.225L742.587 659.275"/>
<path class="l4" d="M736.685 659.275L739.636 662.225"/>
<path class="l4" d="M751.44 634.192L751.44 641.569"/>
<path class="l4" d="M748.489 641.569L754.391 641.569"/>
<path class="l4" d="M751.44 644.52L754.391 641.569"/>
<path class="l4" d="M748.489 641.569L751.44 644.52"/>
<path class="l4" d="M627.502 457.138L627.502 464.515"/>
<path class="l4" d="M624.551 464.515L630.453 464.515"/>
<path class="l4" d="M627.502 467.466L630.453 464.515"/>
<path class="l4" d="M624.551 464.515L627.502 467.466"/>
<path class="l4" d="M639.306 439.432L639.306 446.809"/>
<path class="l4" d="M636.355 446.809L642.257 446.809"/>
<path class="l4" d="M639.306 449.76L642.257 446.809"/>
<path class="l4" d="M636.355 446.809L639.306 449.76"/>
<path class="l4" d="M739.636 280.083L739.636 287.461"/>
<path class="l4" d="M736.685 287.461L742.587 287.461"/>
<path class="l4" d="M739.636 290.412L742.587 287.461"/>
<path class="l4" d="M736.685 287.461L739.636 290.412"/>
<path class="l4" d="M798.654 339.102L798.654 346.479"/>
<path class="l4" d="M795.704 346.479L801.605 346.479"/>
<path class="l4" d="M798.654 349.43L801.605 346.479"/>
<path class="l4" d="M795.704 346.479L798.654 349.43"/>
<path class="l4" d="M816.36 486.647L816.36 494.024"/>
<path class="l4" d="M813.409 494.024L819.311 494.024"/>
<path class="l4" d="M816.36 496.975L819.311 494.024"/>
<path class="l4" d="M813.409 494.024L816.36 496.975"/>
<path class="l4" d="M804.556 468.941L804.556 476.319"/>
<path class="l4" d="M801.605 476.319L807.507 476.319"/>
<path class="l4" d="M804.556 479.269L807.507 476.319"/>
<path class="l4" d="M801.605 476.319L804.556 479.269"/>
<path class="l5" d="M24.0423 260.903L26.9932 260.903L26.9932 263.853L24.0423 263.853L24.0423 260.903z"/>
<path class="l5" d="M24.0423 296.313L26.9932 296.313L26.9932 299.264L24.0423 299.264L24.0423 296.313z"/>
<path class="l5" d="M35.8459 384.841L38.7968 384.841L38.7968 387.791L35.8459 387.791L35.8459 384.841z"/>
<path class="l5" d="M35.8459 420.251L38.7968 420.251L38.7968 423.202L35.8459 423.202L35.8459 420.251z"/>
<path class="l5" d="M602.419 255.001L605.37 255.001L605.37 257.952L602.419 257.952L602.419 255.001z"/>
<path class="l5" d="M602.419 290.412L605.37 290.412L605.37 293.363L602.419 293.363L602.419 290.412z"/>
<path class="l5" d="M543.401 349.43L546.352 349.43L546.352 352.381L543.401 352.381L543.401 349.43z"/>
<path class="l5" d="M543.401 384.841L546.352 384.841L546.352 387.791L543.401 387.791L543.401 384.841z"/>
<path class="l5" d="M507.99 473.368L510.941 473.368L510.941 476.319L507.99 476.319L507.99 473.368z"/>
<path class="l5" d="M507.99 508.778L510.941 508.778L510.941 511.729L507.99 511.729L507.99 508.778z"/>
<path class="l5" d="M597.993 555.993L595.042 557.468L597.993 558.944L597.993 555.993"/>
<path class="l5" d="M596.518 538.288L599.468 538.288L599.468 541.238L596.518 541.238L596.518 538.288z"/>
<path class="l5" d="M572.91 555.993L575.861 555.993L575.861 558.944L572.91 558.944L572.91 555.993z"/>
<path class="l5" d="M596.518 573.698L599.468 573.698L599.468 576.649L596.518 576.649L596.518 573.698z"/>
<path class="l5" d="M597.947 557.422L598.039 557.422L598.039 557.514L597.947 557.514L597.947 557.422z"/>
<path class="l5" d="M819.311 567.797L822.262 569.272L819.311 570.747L819.311 567.797"/>
<path class="l5" d="M820.786 585.502L823.737 585.502L823.737 588.453L820.786 588.453L820.786 585.502z"/>
<path class="l5" d="M797.179 567.797L800.13 567.797L800.13 570.747L797.179 570.747L797.179 567.797z"/>
<path class="l5" d="M820.786 550.091L823.737 550.091L823.737 553.042L820.786 553.042L820.786 550.091z"/>
<path class="l5" d="M822.216 569.226L822.308 569.226L822.308 569.318L822.216 569.318L822.216 569.226z"/>
<path class="l5" d="M716.029 532.386L713.078 533.861L716.029 535.337L716.029 532.386"/>
<path class="l5" d="M714.554 514.68L717.505 514.68L717.505 517.631L714.554 517.631L714.554 514.68z"/>
<path class="l5" d="M690.946 532.386L693.897 532.386L693.897 535.337L690.946 535.337L690.946 532.386z"/>
<path class="l5" d="M714.554 550.091L717.505 550.091L717.505 553.042L714.554 553.042L714.554 550.091z"/>
<path class="l5" d="M715.983 533.815L716.075 533.815L716.075 533.907L715.983 533.907L715.983 533.815z"/>
<path class="l5" d="M626.027 644.52L628.978 644.52L628.978 647.471L626.027 647.471L626.027 644.52z"/>
<path class="l5" d="M626.027 679.931L628.978 679.931L628.978 682.882L626.027 682.882L626.027 679.931z"/>
<path class="l5" d="M751.44 632.716L748.489 634.192L751.44 635.667L751.44 632.716"/>
<path class="l5" d="M749.965 615.011L752.915 615.011L752.915 617.962L749.965 617.962L749.965 615.011z"/>
<path class="l5" d="M726.357 632.716L729.308 632.716L729.308 635.667L726.357 635.667L726.357 632.716z"/>
<path class="l5" d="M749.965 650.422L752.915 650.422L752.915 653.373L749.965 653.373L749.965 650.422z"/>
<path class="l5" d="M751.394 634.146L751.486 634.146L751.486 634.238L751.394 634.238L751.394 634.146z"/>
<path class="l5" d="M639.306 437.957L636.355 439.432L639.306 440.908L639.306 437.957"/>
<path class="l5" d="M637.83 420.251L640.781 420.251L640.781 423.202L637.83 423.202L637.83 420.251z"/>
<path class="l5" d="M614.223 437.957L617.174 437.957L617.174 440.908L614.223 440.908L614.223 437.957z"/>
<path class="l5" d="M637.83 455.662L640.781 455.662L640.781 458.613L637.83 458.613L637.83 455.662z"/>
<path class="l5" d="M639.26 439.386L639.352 439.386L639.352 439.478L639.26 439.478L639.26 439.386z"/>
<path class="l5" d="M739.636 278.608L736.685 280.083L739.636 281.559L739.636 278.608"/>
<path class="l5" d="M738.161 260.903L741.112 260.903L741.112 263.853L738.161 263.853L738.161 260.903z"/>
<path class="l5" d="M714.554 278.608L717.505 278.608L717.505 281.559L714.554 281.559L714.554 278.608z"/>
<path class="l5" d="M738.161 296.313L741.112 296.313L741.112 299.264L738.161 299.264L738.161 296.313z"/>
<path class="l5" d="M739.59 280.037L739.682 280.037L739.682 280.13L739.59 280.13L739.59 280.037z"/>
<path class="l5" d="M798.654 337.626L801.605 339.102L798.654 340.577L798.654 337.626"/>
<path class="l5" d="M797.179 319.921L800.13 319.921L800.13 322.872L797.179 322.872L797.179 319.921z"/>
<path class="l5" d="M820.786 337.626L823.737 337.626L823.737 340.577L820.786 340.577L820.786 337.626z"/>
<path class="l5" d="M797.179 355.331L800.13 355.331L800.13 358.282L797.179 358.282L797.179 355.331z"/>
<path class="l5" d="M798.608 339.055L798.701 339.055L798.701 339.148L798.608 339.148L798.608 339.055z"/>
<path class="l5" d="M901.936 178.277L904.887 179.753L901.936 181.228L901.936 178.277"/>
<path class="l5" d="M903.412 195.983L906.362 195.983L906.362 198.934L903.412 198.934L903.412 195.983z"/>
<path class="l5" d="M879.804 178.277L882.755 178.277L882.755 181.228L879.804 181.228L879.804 178.277z"/>
<path class="l5" d="M903.412 160.572L906.362 160.572L906.362 163.523L903.412 163.523L903.412 160.572z"/>
<path class="l5" d="M904.841 179.707L904.933 179.707L904.933 179.799L904.841 179.799L904.841 179.707z"/>
<path class="l5" d="M896.034 296.313L898.985 297.789L896.034 299.264L896.034 296.313"/>
<path class="l5" d="M897.51 314.019L900.461 314.019L900.461 316.97L897.51 316.97L897.51 314.019z"/>
<path class="l5" d="M873.903 296.313L876.853 296.313L876.853 299.264L873.903 299.264L873.903 296.313z"/>
<path class="l5" d="M897.51 278.608L900.461 278.608L900.461 281.559L897.51 281.559L897.51 278.608z"/>
<path class="l5" d="M898.939 297.743L899.031 297.743L899.031 297.835L898.939 297.835L898.939 297.743z"/>
<path class="l5" d="M937.347 378.939L934.396 380.414L937.347 381.89L937.347 378.939"/>
<path class="l5" d="M932.921 396.644L935.871 396.644L935.871 399.595L932.921 399.595L932.921 396.644z"/>
<path class="l5" d="M956.528 378.939L959.479 378.939L959.479 381.89L956.528 381.89L956.528 378.939z"/>
<path class="l5" d="M932.921 361.233L935.871 361.233L935.871 364.184L932.921 364.184L932.921 361.233z"/>
<path class="l5" d="M934.35 380.368L934.442 380.368L934.442 380.46L934.35 380.46L934.35 380.368z"/>
<path class="l5" d="M804.556 467.466L807.507 468.941L804.556 470.417L804.556 467.466"/>
<path class="l5" d="M803.081 449.76L806.032 449.76L806.032 452.711L803.081 452.711L803.081 449.76z"/>
<path class="l5" d="M826.688 467.466L829.639 467.466L829.639 470.417L826.688 470.417L826.688 467.466z"/>
<path class="l5" d="M803.081 485.171L806.032 485.171L806.032 488.122L803.081 488.122L803.081 485.171z"/>
<path class="l5" d="M804.51 468.895L804.602 468.895L804.602 468.987L804.51 468.987L804.51 468.895z"/>
<path class="l5" d="M1003.74 255.001L1006.69 255.001L1006.69 257.952L1003.74 257.952L1003.74 255.001z"/>
<path class="l5" d="M1003.74 290.412L1006.69 290.412L1006.69 293.363L1003.74 293.363L1003.74 290.412z"/>
<path class="l5" d="M1068.66 343.528L1071.61 343.528L1071.61 346.479L1068.66 346.479L1068.66 343.528z"/>
<path class="l5" d="M1068.66 378.939L1071.61 378.939L1071.61 381.89L1068.66 381.89L1068.66 378.939z"/>
<path class="l5" d="M1015.55 461.564L1018.5 461.564L1018.5 464.515L1015.55 464.515L1015.55 461.564z"/>
<path class="l5" d="M1015.55 496.975L1018.5 496.975L1018.5 499.926L1015.55 499.926L1015.55 496.975z"/>
<path class="l5" d="M24.0423 260.903L26.9932 260.903L26.9932 263.853L24.0423 263.853L24.0423 260.903z"/>
<path class="l5" d="M507.99 473.368L510.941 473.368L510.941 476.319L507.99 476.319L507.99 473.368z"/>
<path class="l5" d="M808.983 585.502L811.934 585.502L811.934 588.453L808.983 588.453L808.983 585.502z"/>
<path class="l5" d="M820.786 567.797L823.737 567.797L823.737 570.747L820.786 570.747L820.786 567.797z"/>
<path class="l5" d="M626.027 644.52L628.978 644.52L628.978 647.471L626.027 647.471L626.027 644.52z"/>
<path class="l5" d="M891.608 195.983L894.559 195.983L894.559 198.934L891.608 198.934L891.608 195.983z"/>
<path class="l5" d="M903.412 178.277L906.362 178.277L906.362 181.228L903.412 181.228L903.412 178.277z"/>
<path class="l5" d="M885.706 314.019L888.657 314.019L888.657 316.97L885.706 316.97L885.706 314.019z"/>
<path class="l5" d="M897.51 296.313L900.461 296.313L900.461 299.264L897.51 299.264L897.51 296.313z"/>
<path class="l5" d="M944.724 396.644L947.675 396.644L947.675 399.595L944.724 399.595L944.724 396.644z"/>
<path class="l5" d="M932.921 378.939L935.871 378.939L935.871 381.89L932.921 381.89L932.921 378.939z"/>
<path class="l5" d="M24.0423 296.313L26.9932 296.313L26.9932 299.264L24.0423 299.264L24.0423 296.313z"/>
<path class="l5" d="M35.8459 420.251L38.7968 420.251L38.7968 423.202L35.8459 423.202L35.8459 420.251z"/>
<path class="l5" d="M602.419 290.412L605.37 290.412L605.37 293.363L602.419 293.363L602.419 290.412z"/>
<path class="l5" d="M543.401 384.841L546.352 384.841L546.352 387.791L543.401 387.791L543.401 384.841z"/>
<path class="l5" d="M1015.55 496.975L1018.5 496.975L1018.5 499.926L1015.55 499.926L1015.55 496.975z"/>
<path class="l5" d="M35.8459 384.841L38.7968 384.841L38.7968 387.791L35.8459 387.791L35.8459 384.841z"/>
<path class="l5" d="M584.714 573.698L587.665 573.698L587.665 576.649L584.714 576.649L584.714 573.698z"/>
<path class="l5" d="M596.518 555.993L599.468 555.993L599.468 558.944L596.518 558.944L596.518 555.993z"/>
<path class="l5" d="M702.75 550.091L705.701 550.091L705.701 553.042L702.75 553.042L702.75 550.091z"/>
<path class="l5" d="M714.554 532.386L717.505 532.386L717.505 535.337L714.554 535.337L714.554 532.386z"/>
<path class="l5" d="M738.161 650.422L741.112 650.422L741.112 653.373L738.161 653.373L738.161 650.422z"/>
<path class="l5" d="M749.965 632.716L752.915 632.716L752.915 635.667L749.965 635.667L749.965 632.716z"/>
<path class="l5" d="M626.027 455.662L628.978 455.662L628.978 458.613L626.027 458.613L626.027 455.662z"/>
<path class="l5" d="M637.83 437.957L640.781 437.957L640.781 440.908L637.83 440.908L637.83 437.957z"/>
<path class="l5" d="M738.161 278.608L741.112 278.608L741.112 281.559L738.161 281.559L738.161 278.608z"/>
<path class="l5" d="M797.179 337.626L800.13 337.626L800.13 340.577L797.179 340.577L797.179 337.626z"/>
<path class="l5" d="M814.884 485.171L817.835 485.171L817.835 488.122L814.884 488.122L814.884 485.171z"/>
<path class="l5" d="M803.081 467.466L806.032 467.466L806.032 470.417L803.081 470.417L803.081 467.466z"/>
<path class="l5" d="M508.728 509.516L510.204 509.516L510.204 510.992L508.728 510.992L508.728 509.516z"/>
<path class="l5" d="M585.452 539.025L586.927 539.025L586.927 540.501L585.452 540.501L585.452 539.025z"/>
<path class="l5" d="M573.648 556.731L575.124 556.731L575.124 558.206L573.648 558.206L573.648 556.731z"/>
<path class="l5" d="M691.684 533.123L693.16 533.123L693.16 534.599L691.684 534.599L691.684 533.123z"/>
<path class="l5" d="M614.961 438.695L616.436 438.695L616.436 440.17L614.961 440.17L614.961 438.695z"/>
<text fill="#cccccc"  xml:space="preserve" font-size="6.13788" transform="translate(37.3213, 274.591)" >Vdd</text>
<text fill="#cccccc"  xml:space="preserve" font-size="6.13788" transform="translate(37.3213, 289.345)" >1.8</text>
<text fill="#cccccc"  xml:space="preserve" font-size="6.13788" transform="translate(49.1249, 398.529)" >Vss</text>
<text fill="#cccccc"  xml:space="preserve" font-size="6.13788" transform="translate(49.1249, 413.283)" >0</text>
<text fill="#cccccc"  xml:space="preserve" font-size="6.13788" transform="translate(615.698, 268.689)" >Vinp</text>
<text fill="#cccccc"  xml:space="preserve" font-size="6.13788" transform="translate(615.698, 283.443)" >0.9</text>
<text fill="#cccccc"  xml:space="preserve" font-size="6.13788" transform="translate(556.68, 363.118)" >Vinm</text>
<text fill="#cccccc"  xml:space="preserve" font-size="6.13788" transform="translate(556.68, 377.872)" >0.9</text>
<text fill="#cccccc"  xml:space="preserve" font-size="6.13788" transform="translate(521.27, 492.22)" >Ibias1</text>
<text fill="#cccccc"  xml:space="preserve" font-size="6.13788" transform="translate(521.27, 499.26)" >{Ibias1</text>
<text fill="#cccccc"  xml:space="preserve" font-size="6.13788" transform="translate(568.14, 545.336)" >XMbn1</text>
<text fill="#ff0000"  xml:space="preserve" font-size="4.60341" transform="translate(599.468, 571.976)" >S</text>
<text fill="#ff0000"  xml:space="preserve" font-size="4.60341" transform="translate(599.468, 546.04)" >D</text>
<text fill="#ff0000"  xml:space="preserve" font-size="4.60341" transform="translate(597.993, 555.746)" >B</text>
<text fill="#ff0000"  xml:space="preserve" font-size="4.60341" transform="translate(576.288, 555.746)" >G</text>
<text fill="#cccccc"  xml:space="preserve" font-size="6.13788" transform="translate(603.895, 550.837)" >nfet_01v8</text>
<text fill="#aaaa00"  xml:space="preserve" font-size="6.13788" transform="translate(604.633, 571.157)" >1 x {Wbn1 / 0.15</text>
<text fill="#aaaa00"  xml:space="preserve" font-size="6.13788" transform="translate(604.633, 563.779)" >nf=1</text>
<text fill="#00ffcc"  xml:space="preserve" font-size="4.60341" transform="translate(603.895, 543.943)" >id=-</text>
<text fill="#ff7777"  xml:space="preserve" font-size="4.60341" transform="translate(603.895, 555.746)" >gm=-</text>
<text fill="#ff7777"  xml:space="preserve" font-size="2.14826" transform="translate(580.14, 569.747)" >vgs= -  </text>
<text fill="#ff7777"  xml:space="preserve" font-size="2.14826" transform="translate(580.14, 572.211)" >vds= -  </text>
<text fill="#cccccc"  xml:space="preserve" font-size="6.13788" transform="translate(792.409, 557.14)" >XMbp1</text>
<text fill="#ff0000"  xml:space="preserve" font-size="4.60341" transform="translate(823.737, 583.78)" >D</text>
<text fill="#ff0000"  xml:space="preserve" font-size="4.60341" transform="translate(823.737, 557.844)" >S</text>
<text fill="#ff0000"  xml:space="preserve" font-size="4.60341" transform="translate(822.262, 567.55)" >B</text>
<text fill="#ff0000"  xml:space="preserve" font-size="4.60341" transform="translate(800.556, 567.55)" >G</text>
<text fill="#cccccc"  xml:space="preserve" font-size="6.13788" transform="translate(828.163, 562.641)" >pfet_01v8</text>
<text fill="#aaaa00"  xml:space="preserve" font-size="6.13788" transform="translate(828.901, 582.96)" >1 x {Wbp / 0.15</text>
<text fill="#aaaa00"  xml:space="preserve" font-size="6.13788" transform="translate(828.901, 575.583)" >nf=1</text>
<text fill="#00ffcc"  xml:space="preserve" font-size="4.60341" transform="translate(828.163, 555.746)" >id=-</text>
<text fill="#ff7777"  xml:space="preserve" font-size="4.60341" transform="translate(828.163, 567.55)" >gm=-</text>
<text fill="#ff7777"  xml:space="preserve" font-size="2.14826" transform="translate(804.409, 581.551)" >vgs= -  </text>
<text fill="#ff7777"  xml:space="preserve" font-size="2.14826" transform="translate(804.409, 584.015)" >vds= -  </text>
<text fill="#cccccc"  xml:space="preserve" font-size="6.13788" transform="translate(686.176, 521.729)" >XMbp2</text>
<text fill="#ff0000"  xml:space="preserve" font-size="4.60341" transform="translate(717.505, 548.369)" >S</text>
<text fill="#ff0000"  xml:space="preserve" font-size="4.60341" transform="translate(717.505, 522.433)" >D</text>
<text fill="#ff0000"  xml:space="preserve" font-size="4.60341" transform="translate(716.029, 532.139)" >B</text>
<text fill="#ff0000"  xml:space="preserve" font-size="4.60341" transform="translate(694.324, 532.139)" >G</text>
<text fill="#cccccc"  xml:space="preserve" font-size="6.13788" transform="translate(721.931, 527.23)" >nfet_01v8</text>
<text fill="#aaaa00"  xml:space="preserve" font-size="6.13788" transform="translate(722.669, 547.549)" >1 x {Wbn1 / 0.15</text>
<text fill="#aaaa00"  xml:space="preserve" font-size="6.13788" transform="translate(722.669, 540.172)" >nf=1</text>
<text fill="#00ffcc"  xml:space="preserve" font-size="4.60341" transform="translate(721.931, 520.336)" >id=-</text>
<text fill="#ff7777"  xml:space="preserve" font-size="4.60341" transform="translate(721.931, 532.139)" >gm=-</text>
<text fill="#ff7777"  xml:space="preserve" font-size="2.14826" transform="translate(698.176, 546.14)" >vgs= -  </text>
<text fill="#ff7777"  xml:space="preserve" font-size="2.14826" transform="translate(698.176, 548.604)" >vds= -  </text>
<text fill="#cccccc"  xml:space="preserve" font-size="6.13788" transform="translate(639.306, 663.372)" >Ibias2</text>
<text fill="#cccccc"  xml:space="preserve" font-size="6.13788" transform="translate(639.306, 670.412)" >{Ibias2</text>
<text fill="#cccccc"  xml:space="preserve" font-size="6.13788" transform="translate(721.587, 622.06)" >XMbn2</text>
<text fill="#ff0000"  xml:space="preserve" font-size="4.60341" transform="translate(752.915, 648.7)" >S</text>
<text fill="#ff0000"  xml:space="preserve" font-size="4.60341" transform="translate(752.915, 622.763)" >D</text>
<text fill="#ff0000"  xml:space="preserve" font-size="4.60341" transform="translate(751.44, 632.47)" >B</text>
<text fill="#ff0000"  xml:space="preserve" font-size="4.60341" transform="translate(729.735, 632.47)" >G</text>
<text fill="#cccccc"  xml:space="preserve" font-size="6.13788" transform="translate(757.342, 627.561)" >nfet_01v8</text>
<text fill="#aaaa00"  xml:space="preserve" font-size="6.13788" transform="translate(758.08, 647.88)" >1 x {Wbn2 / 0.15</text>
<text fill="#aaaa00"  xml:space="preserve" font-size="6.13788" transform="translate(758.08, 640.503)" >nf=1</text>
<text fill="#00ffcc"  xml:space="preserve" font-size="4.60341" transform="translate(757.342, 620.666)" >id=-</text>
<text fill="#ff7777"  xml:space="preserve" font-size="4.60341" transform="translate(757.342, 632.47)" >gm=-</text>
<text fill="#ff7777"  xml:space="preserve" font-size="2.14826" transform="translate(733.587, 646.471)" >vgs= -  </text>
<text fill="#ff7777"  xml:space="preserve" font-size="2.14826" transform="translate(733.587, 648.935)" >vds= -  </text>
<text fill="#cccccc"  xml:space="preserve" font-size="6.13788" transform="translate(617.453, 427.3)" >XM5</text>
<text fill="#ff0000"  xml:space="preserve" font-size="4.60341" transform="translate(640.781, 453.94)" >S</text>
<text fill="#ff0000"  xml:space="preserve" font-size="4.60341" transform="translate(640.781, 428.004)" >D</text>
<text fill="#ff0000"  xml:space="preserve" font-size="4.60341" transform="translate(639.306, 437.71)" >B</text>
<text fill="#ff0000"  xml:space="preserve" font-size="4.60341" transform="translate(617.6, 437.71)" >G</text>
<text fill="#cccccc"  xml:space="preserve" font-size="6.13788" transform="translate(645.207, 432.801)" >nfet_01v8</text>
<text fill="#aaaa00"  xml:space="preserve" font-size="6.13788" transform="translate(645.945, 453.12)" >1 x {W5 / 0.15</text>
<text fill="#aaaa00"  xml:space="preserve" font-size="6.13788" transform="translate(645.945, 445.743)" >nf=1</text>
<text fill="#00ffcc"  xml:space="preserve" font-size="4.60341" transform="translate(645.207, 425.907)" >id=-</text>
<text fill="#ff7777"  xml:space="preserve" font-size="4.60341" transform="translate(645.207, 437.71)" >gm=-</text>
<text fill="#ff7777"  xml:space="preserve" font-size="2.14826" transform="translate(621.453, 451.711)" >vgs= -  </text>
<text fill="#ff7777"  xml:space="preserve" font-size="2.14826" transform="translate(621.453, 454.175)" >vds= -  </text>
<text fill="#cccccc"  xml:space="preserve" font-size="6.13788" transform="translate(717.784, 267.951)" >XM1</text>
<text fill="#ff0000"  xml:space="preserve" font-size="4.60341" transform="translate(741.112, 294.591)" >S</text>
<text fill="#ff0000"  xml:space="preserve" font-size="4.60341" transform="translate(741.112, 268.655)" >D</text>
<text fill="#ff0000"  xml:space="preserve" font-size="4.60341" transform="translate(739.636, 278.362)" >B</text>
<text fill="#ff0000"  xml:space="preserve" font-size="4.60341" transform="translate(717.931, 278.362)" >G</text>
<text fill="#cccccc"  xml:space="preserve" font-size="6.13788" transform="translate(745.538, 273.452)" >nfet_01v8</text>
<text fill="#aaaa00"  xml:space="preserve" font-size="6.13788" transform="translate(746.276, 293.772)" >1 x {W1 / 0.15</text>
<text fill="#aaaa00"  xml:space="preserve" font-size="6.13788" transform="translate(746.276, 286.394)" >nf=1</text>
<text fill="#00ffcc"  xml:space="preserve" font-size="4.60341" transform="translate(745.538, 266.558)" >id=-</text>
<text fill="#ff7777"  xml:space="preserve" font-size="4.60341" transform="translate(745.538, 278.362)" >gm=-</text>
<text fill="#ff7777"  xml:space="preserve" font-size="2.14826" transform="translate(721.784, 292.362)" >vgs= -  </text>
<text fill="#ff7777"  xml:space="preserve" font-size="2.14826" transform="translate(721.784, 294.826)" >vds= -  </text>
<text fill="#cccccc"  xml:space="preserve" font-size="6.13788" transform="translate(807.507, 326.969)" >XM2</text>
<text fill="#ff0000"  xml:space="preserve" font-size="4.60341" transform="translate(794.179, 353.61)" >S</text>
<text fill="#ff0000"  xml:space="preserve" font-size="4.60341" transform="translate(793.179, 327.673)" >D</text>
<text fill="#ff0000"  xml:space="preserve" font-size="4.60341" transform="translate(795.654, 337.38)" >B</text>
<text fill="#ff0000"  xml:space="preserve" font-size="4.60341" transform="translate(816.36, 337.38)" >G</text>
<text fill="#cccccc"  xml:space="preserve" font-size="6.13788" transform="translate(761.753, 332.47)" >nfet_01v8</text>
<text fill="#aaaa00"  xml:space="preserve" font-size="6.13788" transform="translate(746.015, 352.79)" >1 x {W1 / 0.15</text>
<text fill="#aaaa00"  xml:space="preserve" font-size="6.13788" transform="translate(777.015, 345.412)" >nf=1</text>
<text fill="#00ffcc"  xml:space="preserve" font-size="4.60341" transform="translate(782.753, 325.576)" >id=-</text>
<text fill="#ff7777"  xml:space="preserve" font-size="4.60341" transform="translate(779.753, 337.38)" >gm=-</text>
<text fill="#ff7777"  xml:space="preserve" font-size="2.14826" transform="translate(807.507, 351.38)" >vgs= -  </text>
<text fill="#ff7777"  xml:space="preserve" font-size="2.14826" transform="translate(807.507, 353.844)" >vds= -  </text>
<text fill="#cccccc"  xml:space="preserve" font-size="6.13788" transform="translate(883.034, 167.62)" >XM3</text>
<text fill="#ff0000"  xml:space="preserve" font-size="4.60341" transform="translate(906.362, 194.261)" >D</text>
<text fill="#ff0000"  xml:space="preserve" font-size="4.60341" transform="translate(906.362, 168.324)" >S</text>
<text fill="#ff0000"  xml:space="preserve" font-size="4.60341" transform="translate(904.887, 178.031)" >B</text>
<text fill="#ff0000"  xml:space="preserve" font-size="4.60341" transform="translate(883.182, 178.031)" >G</text>
<text fill="#cccccc"  xml:space="preserve" font-size="6.13788" transform="translate(910.789, 173.122)" >pfet_01v8</text>
<text fill="#aaaa00"  xml:space="preserve" font-size="6.13788" transform="translate(911.527, 193.441)" >1 x {W3 / 0.15</text>
<text fill="#aaaa00"  xml:space="preserve" font-size="6.13788" transform="translate(911.527, 186.064)" >nf=1</text>
<text fill="#00ffcc"  xml:space="preserve" font-size="4.60341" transform="translate(910.789, 166.227)" >id=-</text>
<text fill="#ff7777"  xml:space="preserve" font-size="4.60341" transform="translate(910.789, 178.031)" >gm=-</text>
<text fill="#ff7777"  xml:space="preserve" font-size="2.14826" transform="translate(887.034, 192.031)" >vgs= -  </text>
<text fill="#ff7777"  xml:space="preserve" font-size="2.14826" transform="translate(887.034, 194.496)" >vds= -  </text>
<text fill="#cccccc"  xml:space="preserve" font-size="6.13788" transform="translate(877.132, 285.657)" >XM4</text>
<text fill="#ff0000"  xml:space="preserve" font-size="4.60341" transform="translate(900.461, 312.297)" >D</text>
<text fill="#ff0000"  xml:space="preserve" font-size="4.60341" transform="translate(900.461, 286.36)" >S</text>
<text fill="#ff0000"  xml:space="preserve" font-size="4.60341" transform="translate(898.985, 296.067)" >B</text>
<text fill="#ff0000"  xml:space="preserve" font-size="4.60341" transform="translate(877.28, 296.067)" >G</text>
<text fill="#cccccc"  xml:space="preserve" font-size="6.13788" transform="translate(904.887, 291.158)" >pfet_01v8</text>
<text fill="#aaaa00"  xml:space="preserve" font-size="6.13788" transform="translate(905.625, 311.477)" >1 x {W3 / 0.15</text>
<text fill="#aaaa00"  xml:space="preserve" font-size="6.13788" transform="translate(905.625, 304.1)" >nf=1</text>
<text fill="#00ffcc"  xml:space="preserve" font-size="4.60341" transform="translate(904.887, 284.263)" >id=-</text>
<text fill="#ff7777"  xml:space="preserve" font-size="4.60341" transform="translate(904.887, 296.067)" >gm=-</text>
<text fill="#ff7777"  xml:space="preserve" font-size="2.14826" transform="translate(881.132, 310.068)" >vgs= -  </text>
<text fill="#ff7777"  xml:space="preserve" font-size="2.14826" transform="translate(881.132, 312.532)" >vds= -  </text>
<text fill="#cccccc"  xml:space="preserve" font-size="6.13788" transform="translate(943.249, 368.282)" >XM6</text>
<text fill="#ff0000"  xml:space="preserve" font-size="4.60341" transform="translate(928.921, 394.922)" >D</text>
<text fill="#ff0000"  xml:space="preserve" font-size="4.60341" transform="translate(929.921, 368.986)" >S</text>
<text fill="#ff0000"  xml:space="preserve" font-size="4.60341" transform="translate(931.396, 378.692)" >B</text>
<text fill="#ff0000"  xml:space="preserve" font-size="4.60341" transform="translate(952.101, 378.692)" >G</text>
<text fill="#cccccc"  xml:space="preserve" font-size="6.13788" transform="translate(897.494, 373.783)" >pfet_01v8</text>
<text fill="#aaaa00"  xml:space="preserve" font-size="6.13788" transform="translate(881.756, 394.102)" >1 x {W6 / 0.15</text>
<text fill="#aaaa00"  xml:space="preserve" font-size="6.13788" transform="translate(912.756, 386.725)" >nf=1</text>
<text fill="#00ffcc"  xml:space="preserve" font-size="4.60341" transform="translate(918.494, 366.889)" >id=-</text>
<text fill="#ff7777"  xml:space="preserve" font-size="4.60341" transform="translate(915.494, 378.692)" >gm=-</text>
<text fill="#ff7777"  xml:space="preserve" font-size="2.14826" transform="translate(943.249, 392.693)" >vgs= -  </text>
<text fill="#ff7777"  xml:space="preserve" font-size="2.14826" transform="translate(943.249, 395.157)" >vds= -  </text>
<text fill="#cccccc"  xml:space="preserve" font-size="6.13788" transform="translate(813.409, 456.809)" >XM7</text>
<text fill="#ff0000"  xml:space="preserve" font-size="4.60341" transform="translate(800.081, 483.449)" >S</text>
<text fill="#ff0000"  xml:space="preserve" font-size="4.60341" transform="translate(799.081, 457.513)" >D</text>
<text fill="#ff0000"  xml:space="preserve" font-size="4.60341" transform="translate(801.556, 467.219)" >B</text>
<text fill="#ff0000"  xml:space="preserve" font-size="4.60341" transform="translate(822.262, 467.219)" >G</text>
<text fill="#cccccc"  xml:space="preserve" font-size="6.13788" transform="translate(767.654, 462.31)" >nfet_01v8</text>
<text fill="#aaaa00"  xml:space="preserve" font-size="6.13788" transform="translate(751.917, 482.629)" >1 x {W7 / 0.15</text>
<text fill="#aaaa00"  xml:space="preserve" font-size="6.13788" transform="translate(782.917, 475.252)" >nf=1</text>
<text fill="#00ffcc"  xml:space="preserve" font-size="4.60341" transform="translate(788.654, 455.416)" >id=-</text>
<text fill="#ff7777"  xml:space="preserve" font-size="4.60341" transform="translate(785.654, 467.219)" >gm=-</text>
<text fill="#ff7777"  xml:space="preserve" font-size="2.14826" transform="translate(813.409, 481.22)" >vgs= -  </text>
<text fill="#ff7777"  xml:space="preserve" font-size="2.14826" transform="translate(813.409, 483.684)" >vds= -  </text>
<text fill="#aaaa00"  xml:space="preserve" font-size="6.13788" transform="translate(995.316, 264.263)" >1</text>
<text fill="#aaaa00"  xml:space="preserve" font-size="6.13788" transform="translate(995.316, 289.345)" >2</text>
<text fill="#cccccc"  xml:space="preserve" font-size="6.13788" transform="translate(1014.07, 268.689)" >Rc</text>
<text fill="#cccccc"  xml:space="preserve" font-size="6.13788" transform="translate(1014.07, 276.066)" >{Rc</text>
<text fill="#cccccc"  xml:space="preserve" font-size="6.13788" transform="translate(1014.07, 283.443)" >m=1</text>
<text fill="#aaaa00"  xml:space="preserve" font-size="6.13788" transform="translate(1063.19, 352.79)" >1</text>
<text fill="#aaaa00"  xml:space="preserve" font-size="6.13788" transform="translate(1063.19, 377.872)" >2</text>
<text fill="#cccccc"  xml:space="preserve" font-size="6.13788" transform="translate(1078.99, 357.216)" >Cc</text>
<text fill="#cccccc"  xml:space="preserve" font-size="6.13788" transform="translate(1078.99, 364.593)" >{Cc</text>
<text fill="#cccccc"  xml:space="preserve" font-size="6.13788" transform="translate(1078.99, 371.971)" >m=1</text>
<text fill="#aaaa00"  xml:space="preserve" font-size="6.13788" transform="translate(1010.07, 470.826)" >1</text>
<text fill="#aaaa00"  xml:space="preserve" font-size="6.13788" transform="translate(1010.07, 495.909)" >2</text>
<text fill="#cccccc"  xml:space="preserve" font-size="6.13788" transform="translate(1025.87, 475.252)" >CL</text>
<text fill="#cccccc"  xml:space="preserve" font-size="6.13788" transform="translate(1025.87, 482.629)" >5p</text>
<text fill="#cccccc"  xml:space="preserve" font-size="6.13788" transform="translate(1025.87, 490.007)" >m=1</text>
<text fill="#00ddff"  xml:space="preserve" font-size="6.13788" transform="translate(18.1405, 247.295)" >VDD</text>
<text fill="#00ddff"  xml:space="preserve" font-size="6.13788" transform="translate(502.089, 459.76)" >VDD</text>
<text fill="#00ddff"  xml:space="preserve" font-size="6.13788" transform="translate(803.081, 571.894)" >VDD</text>
<text fill="#00ddff"  xml:space="preserve" font-size="6.13788" transform="translate(814.884, 554.189)" >VDD</text>
<text fill="#00ddff"  xml:space="preserve" font-size="6.13788" transform="translate(620.125, 630.912)" >VDD</text>
<text fill="#00ddff"  xml:space="preserve" font-size="6.13788" transform="translate(885.706, 182.375)" >VDD</text>
<text fill="#00ddff"  xml:space="preserve" font-size="6.13788" transform="translate(897.51, 164.67)" >VDD</text>
<text fill="#00ddff"  xml:space="preserve" font-size="6.13788" transform="translate(879.804, 300.411)" >VDD</text>
<text fill="#00ddff"  xml:space="preserve" font-size="6.13788" transform="translate(891.608, 282.706)" >VDD</text>
<text fill="#00ddff"  xml:space="preserve" font-size="6.13788" transform="translate(938.822, 383.036)" >VDD</text>
<text fill="#00ddff"  xml:space="preserve" font-size="6.13788" transform="translate(927.019, 365.331)" >VDD</text>
<text fill="#00ddff"  xml:space="preserve" font-size="6.13788" transform="translate(29.9441, 306.313)" >GND</text>
<text fill="#00ddff"  xml:space="preserve" font-size="6.13788" transform="translate(41.7477, 430.251)" >GND</text>
<text fill="#00ddff"  xml:space="preserve" font-size="6.13788" transform="translate(608.321, 300.411)" >GND</text>
<text fill="#00ddff"  xml:space="preserve" font-size="6.13788" transform="translate(549.303, 394.84)" >GND</text>
<text fill="#00ddff"  xml:space="preserve" font-size="6.13788" transform="translate(1021.45, 506.974)" >GND</text>
<text fill="#00ddff"  xml:space="preserve" font-size="6.13788" transform="translate(41.7477, 394.84)" >VSS</text>
<text fill="#00ddff"  xml:space="preserve" font-size="6.13788" transform="translate(590.616, 583.698)" >VSS</text>
<text fill="#00ddff"  xml:space="preserve" font-size="6.13788" transform="translate(602.419, 565.992)" >VSS</text>
<text fill="#00ddff"  xml:space="preserve" font-size="6.13788" transform="translate(708.652, 560.091)" >VSS</text>
<text fill="#00ddff"  xml:space="preserve" font-size="6.13788" transform="translate(720.456, 542.385)" >VSS</text>
<text fill="#00ddff"  xml:space="preserve" font-size="6.13788" transform="translate(744.063, 660.421)" >VSS</text>
<text fill="#00ddff"  xml:space="preserve" font-size="6.13788" transform="translate(755.866, 642.716)" >VSS</text>
<text fill="#00ddff"  xml:space="preserve" font-size="6.13788" transform="translate(631.928, 465.662)" >VSS</text>
<text fill="#00ddff"  xml:space="preserve" font-size="6.13788" transform="translate(643.732, 447.956)" >VSS</text>
<text fill="#00ddff"  xml:space="preserve" font-size="6.13788" transform="translate(744.063, 288.608)" >VSS</text>
<text fill="#00ddff"  xml:space="preserve" font-size="6.13788" transform="translate(803.081, 347.626)" >VSS</text>
<text fill="#00ddff"  xml:space="preserve" font-size="6.13788" transform="translate(820.786, 495.171)" >VSS</text>
<text fill="#00ddff"  xml:space="preserve" font-size="6.13788" transform="translate(808.983, 477.465)" >VSS</text>
<text fill="#00ddff"  xml:space="preserve" font-size="10.1275" transform="translate(473.04, 514.654)" >bias1n</text>
<text fill="#00ddff"  xml:space="preserve" font-size="10.1275" transform="translate(549.763, 544.164)" >bias1n</text>
<text fill="#00ddff"  xml:space="preserve" font-size="10.1275" transform="translate(537.959, 561.869)" >bias1n</text>
<text fill="#00ddff"  xml:space="preserve" font-size="10.1275" transform="translate(655.996, 538.262)" >bias1n</text>
<text fill="#00ddff"  xml:space="preserve" font-size="10.1275" transform="translate(579.272, 443.833)" >bias1n</text>
<path class="l1" d="M603.895 256.476L822.262 256.476"/>
<path class="l1" d="M822.262 256.476L822.262 339.102"/>
<path class="l1" d="M544.877 350.905L716.029 350.905"/>
<path class="l1" d="M716.029 280.083L716.029 350.905"/>
<path class="l1" d="M769.145 551.567L810.458 551.567"/>
<path class="l1" d="M769.145 545.665L769.145 551.567"/>
<path class="l1" d="M769.145 569.272L798.654 569.272"/>
<path class="l1" d="M769.145 545.665L769.145 569.272"/>
<path class="l1" d="M704.226 516.156L769.145 516.156"/>
<path class="l1" d="M769.145 516.156L769.145 545.665"/>
<path class="l1" d="M627.502 681.406L733.735 681.406"/>
<path class="l1" d="M733.735 598.781L733.735 681.406"/>
<path class="l1" d="M733.735 616.486L739.636 616.486"/>
<path class="l1" d="M733.735 598.781L733.735 616.486"/>
<path class="l1" d="M727.833 634.192L733.735 634.192"/>
<path class="l1" d="M733.735 598.781L733.735 634.192"/>
<path class="l1" d="M733.735 468.941L828.163 468.941"/>
<path class="l1" d="M733.735 468.941L733.735 598.781"/>
<path class="l1" d="M627.502 421.727L721.931 421.727"/>
<path class="l1" d="M721.931 356.807L721.931 421.727"/>
<path class="l1" d="M721.931 297.789L727.833 297.789"/>
<path class="l1" d="M721.931 297.789L721.931 356.807"/>
<path class="l1" d="M721.931 356.807L810.458 356.807"/>
<path class="l1" d="M727.833 262.378L845.869 262.378"/>
<path class="l1" d="M845.869 226.967L845.869 262.378"/>
<path class="l1" d="M845.869 162.047L893.083 162.047"/>
<path class="l1" d="M845.869 162.047L845.869 226.967"/>
<path class="l1" d="M845.869 179.753L881.28 179.753"/>
<path class="l1" d="M845.869 179.753L845.869 226.967"/>
<path class="l1" d="M845.869 297.789L875.378 297.789"/>
<path class="l1" d="M845.869 226.967L845.869 297.789"/>
<path class="l1" d="M810.458 321.396L916.691 321.396"/>
<path class="l1" d="M916.691 309.592L916.691 321.396"/>
<path class="l1" d="M887.182 280.083L916.691 280.083"/>
<path class="l1" d="M916.691 280.083L916.691 309.592"/>
<path class="l1" d="M916.691 380.414L958.003 380.414"/>
<path class="l1" d="M916.691 309.592L916.691 380.414"/>
<path class="l1" d="M916.691 256.476L1005.22 256.476"/>
<path class="l1" d="M916.691 256.476L916.691 309.592"/>
<path class="l1" d="M946.2 362.709L963.905 362.709"/>
<path class="l1" d="M963.905 362.709L963.905 415.825"/>
<path class="l1" d="M816.36 451.236L963.905 451.236"/>
<path class="l1" d="M963.905 415.825L963.905 451.236"/>
<path class="l1" d="M963.905 380.414L1070.14 380.414"/>
<path class="l1" d="M963.905 380.414L963.905 415.825"/>
<path class="l1" d="M963.905 463.039L1017.02 463.039"/>
<path class="l1" d="M963.905 415.825L963.905 463.039"/>
<path class="l1" d="M1005.22 291.887L1070.14 291.887"/>
<path class="l1" d="M1070.14 291.887L1070.14 345.003"/>
<circle class="l1" cx="845.869" cy="226.967" r="2.18367"/>
<circle class="l1" cx="845.869" cy="179.753" r="2.18367"/>
<circle class="l1" cx="845.869" cy="226.967" r="2.18367"/>
<circle class="l1" cx="845.869" cy="179.753" r="2.18367"/>
<circle class="l1" cx="845.869" cy="226.967" r="2.18367"/>
<circle class="l1" cx="845.869" cy="226.967" r="2.18367"/>
<circle class="l1" cx="845.869" cy="262.378" r="2.18367"/>
<circle class="l1" cx="963.905" cy="451.236" r="2.18367"/>
<circle class="l1" cx="916.691" cy="309.592" r="2.18367"/>
<circle class="l1" cx="916.691" cy="309.592" r="2.18367"/>
<circle class="l1" cx="916.691" cy="280.083" r="2.18367"/>
<circle class="l1" cx="916.691" cy="309.592" r="2.18367"/>
<circle class="l1" cx="916.691" cy="280.083" r="2.18367"/>
<circle class="l1" cx="916.691" cy="309.592" r="2.18367"/>
<circle class="l1" cx="916.691" cy="321.396" r="2.18367"/>
<circle class="l1" cx="916.691" cy="321.396" r="2.18367"/>
<circle class="l1" cx="845.869" cy="262.378" r="2.18367"/>
<circle class="l1" cx="721.931" cy="356.807" r="2.18367"/>
<circle class="l1" cx="721.931" cy="356.807" r="2.18367"/>
<circle class="l1" cx="721.931" cy="356.807" r="2.18367"/>
<circle class="l1" cx="733.735" cy="598.781" r="2.18367"/>
<circle class="l1" cx="733.735" cy="598.781" r="2.18367"/>
<circle class="l1" cx="733.735" cy="634.192" r="2.18367"/>
<circle class="l1" cx="733.735" cy="634.192" r="2.18367"/>
<circle class="l1" cx="733.735" cy="598.781" r="2.18367"/>
<circle class="l1" cx="733.735" cy="616.486" r="2.18367"/>
<circle class="l1" cx="733.735" cy="616.486" r="2.18367"/>
<circle class="l1" cx="733.735" cy="598.781" r="2.18367"/>
<circle class="l1" cx="769.145" cy="545.665" r="2.18367"/>
<circle class="l1" cx="769.145" cy="545.665" r="2.18367"/>
<circle class="l1" cx="769.145" cy="545.665" r="2.18367"/>
<circle class="l1" cx="769.145" cy="551.567" r="2.18367"/>
<circle class="l1" cx="769.145" cy="551.567" r="2.18367"/>
<circle class="l1" cx="963.905" cy="415.825" r="2.18367"/>
<circle class="l1" cx="963.905" cy="380.414" r="2.18367"/>
<circle class="l1" cx="963.905" cy="415.825" r="2.18367"/>
<circle class="l1" cx="963.905" cy="380.414" r="2.18367"/>
<circle class="l1" cx="963.905" cy="415.825" r="2.18367"/>
<circle class="l1" cx="963.905" cy="451.236" r="2.18367"/>
<circle class="l1" cx="963.905" cy="415.825" r="2.18367"/>
<text fill="#cccccc"  xml:space="preserve" font-size="18.4136" transform="translate(31.4195, 84.338)" >SKY130 Two-Stage Miller OTA — NMOS input, independent stage biasing</text>
<text fill="#cccccc"  xml:space="preserve" font-size="12.2758" transform="translate(31.4195, 102.372)" >Separate bias currents for first and second stage for optimal power allocation</text>
<text fill="#cccccc"  xml:space="preserve" font-size="12.2758" transform="translate(31.4195, 120.077)" >=== BIAS GENERATION — Stage 1 ===</text>
<text fill="#cccccc"  xml:space="preserve" font-size="12.2758" transform="translate(31.4195, 137.783)" >PMOS bias for second stage</text>
<text fill="#cccccc"  xml:space="preserve" font-size="12.2758" transform="translate(31.4195, 155.488)" >=== BIAS GENERATION — Stage 2 ===</text>
<text fill="#cccccc"  xml:space="preserve" font-size="12.2758" transform="translate(31.4195, 173.194)" >=== FIRST STAGE ===</text>
<text fill="#cccccc"  xml:space="preserve" font-size="12.2758" transform="translate(31.4195, 190.899)" >=== SECOND STAGE ===</text>
<text fill="#cccccc"  xml:space="preserve" font-size="12.2758" transform="translate(31.4195, 208.605)" >=== Miller compensation ===</text>
<text fill="#cccccc"  xml:space="preserve" font-size="12.2758" transform="translate(31.4195, 226.31)" >=== Load ===</text>
</svg>
